<svg class="art art--bloodlust" viewBox="0 0 1600 900" xmlns="http://www.w3.org/2000/svg" preserveAspectRatio="xMidYMid slice" role="img" aria-label="A pixelated blood orb behind horned skulls and pentagram sigils">
<defs>
<linearGradient id="g-bg" x1="0" y1="0" x2="0.3" y2="1"><stop offset="0%" stop-color="#3a0304"/><stop offset="58%" stop-color="#120102"/><stop offset="100%" stop-color="#0a0001"/></linearGradient>
<linearGradient id="g-slab" x1="0" y1="0" x2="0.4" y2="1"><stop offset="0%" stop-color="#ff1414" stop-opacity="0.42"/><stop offset="100%" stop-color="#0a0001" stop-opacity="0.72"/></linearGradient>
<linearGradient id="g-blade" x1="0" y1="0" x2="1" y2="1"><stop offset="0%" stop-color="#ffd6d6" stop-opacity="0.7"/><stop offset="60%" stop-color="#ff1414" stop-opacity="0.28"/><stop offset="100%" stop-color="#ff5a2a" stop-opacity="0"/></linearGradient>
<linearGradient id="g-beam" x1="0" y1="0" x2="1" y2="0"><stop offset="0%" stop-color="#ff1414" stop-opacity="0"/><stop offset="30%" stop-color="#ffd6d6"/><stop offset="70%" stop-color="#ff1414"/><stop offset="100%" stop-color="#ff1414" stop-opacity="0"/></linearGradient>
<radialGradient id="g-orb" cx="42%" cy="38%" r="62%"><stop offset="0%" stop-color="#ffd6d6"/><stop offset="38%" stop-color="#ff1414"/><stop offset="78%" stop-color="#ff5a2a" stop-opacity="0.7"/><stop offset="100%" stop-color="#0a0001"/></radialGradient>
<radialGradient id="g-halo" cx="50%" cy="50%" r="50%"><stop offset="0%" stop-color="#ff1414" stop-opacity="0.42"/><stop offset="100%" stop-color="#ff1414" stop-opacity="0"/></radialGradient>
<linearGradient id="g-vig" x1="0" y1="0" x2="0" y2="1"><stop offset="0%" stop-color="#0a0001" stop-opacity="0.42"/><stop offset="26%" stop-color="#0a0001" stop-opacity="0.02"/><stop offset="100%" stop-color="#0a0001" stop-opacity="0.5"/></linearGradient>
<filter id="g-glow" x="-70%" y="-70%" width="240%" height="240%"><feGaussianBlur stdDeviation="8" result="b"/><feFlood flood-color="#ff1414" result="fc"/><feComposite in="fc" in2="b" operator="in" result="g"/><feMerge><feMergeNode in="g"/><feMergeNode in="g"/><feMergeNode in="SourceGraphic"/></feMerge></filter>
<filter id="g-soft"><feGaussianBlur stdDeviation="20"/></filter>
<radialGradient id="g-corner" cx="50%" cy="46%" r="72%"><stop offset="55%" stop-color="#0a0001" stop-opacity="0"/><stop offset="100%" stop-color="#0a0001" stop-opacity="0.72"/></radialGradient>
<filter id="g-grain"><feTurbulence type="fractalNoise" baseFrequency="0.85" numOctaves="4"/><feColorMatrix type="saturate" values="0"/></filter>
</defs>
<rect width="1600" height="900" fill="url(#g-bg)"/>
<g filter="url(#g-soft)">
<ellipse cx="550.7" cy="432.4" rx="285.1" ry="151.5" fill="#ff5a2a" opacity="0.1"/>
<ellipse cx="1179.8" cy="214.1" rx="226.7" ry="127.5" fill="#ff5a2a" opacity="0.1"/>
<ellipse cx="1613" cy="541.9" rx="166.7" ry="115.3" fill="#3a0304" opacity="0.1"/>
<ellipse cx="1508.4" cy="726.9" rx="360.2" ry="84.4" fill="#ff5a2a" opacity="0.1"/>
<ellipse cx="1166.4" cy="886.9" rx="394.8" ry="137.9" fill="#ff5a2a" opacity="0.1"/>
<ellipse cx="526" cy="380.8" rx="352.9" ry="231.7" fill="#ff5a2a" opacity="0.1"/>
<ellipse cx="409" cy="75.2" rx="460" ry="81" fill="#ff5a2a" opacity="0.1"/>
<ellipse cx="178.1" cy="273.8" rx="298.3" ry="90.5" fill="#3a0304" opacity="0.1"/>
</g>
<g filter="url(#g-soft)" opacity="0.5">
<path d="M1310.1 -39.9 L1409.2 -39.9 L1549 960 L1387.9 960 Z" fill="#ffd6d6" opacity="0.1"/>
<path d="M178.6 29.9 L214.8 29.9 L396.8 960 L296.1 960 Z" fill="#ffd6d6" opacity="0.1"/>
<path d="M1454.9 41.4 L1487.6 41.4 L1546.7 960 L1491.9 960 Z" fill="#ffd6d6" opacity="0.1"/>
<path d="M716.4 0.3 L811.5 0.3 L1003.9 960 L735.2 960 Z" fill="#ffd6d6" opacity="0"/>
<path d="M475.3 7.4 L548.6 7.4 L552.9 960 L403.4 960 Z" fill="#ffd6d6" opacity="0"/>
</g>
<g class="mo-breathe" style='--dur:2.6s;--from:0.97;--to:1.04'>
<circle cx="800" cy="378" r="1164.8" fill="url(#g-halo)"/>
<circle cx="800" cy="378" r="448" fill="url(#g-orb)"/>
<circle cx="800" cy="378" r="448" fill="none" stroke="#ffd6d6" stroke-width="3" opacity="0.8"/>
<circle cx="800" cy="378" r="519.7" fill="none" stroke="#ff1414" stroke-width="1.6" opacity="0.4"/>
</g>
<g class="mo-spin-r" style='--dur:180s'>
<g transform="translate(1294.2 629.8)" fill="none" stroke="#ff1414" stroke-width="3" opacity="0.36">
<circle r="52.9"/><circle r="42.3" stroke-width="1.6"/>
<path d="M0 -42.3 L24.9 34.2 L-40.2 -13.1 L40.2 -13.1 L-24.9 34.2 Z" stroke-linejoin="round"/>
</g>
<g transform="translate(645.5 752.2)" fill="none" stroke="#ff1414" stroke-width="3" opacity="0.22">
<circle r="91.6"/><circle r="73.3" stroke-width="1.6"/>
<path d="M0 -73.3 L43.1 59.3 L-69.7 -22.6 L69.7 -22.6 L-43.1 59.3 Z" stroke-linejoin="round"/>
</g>
<g transform="translate(918.2 252.6)" fill="none" stroke="#ff1414" stroke-width="3" opacity="0.19">
<circle r="64.7"/><circle r="51.7" stroke-width="1.6"/>
<path d="M0 -51.7 L30.4 41.9 L-49.2 -16 L49.2 -16 L-30.4 41.9 Z" stroke-linejoin="round"/>
</g>
<g transform="translate(1002.9 274.3)" fill="none" stroke="#ff1414" stroke-width="3" opacity="0.26">
<circle r="74.4"/><circle r="59.5" stroke-width="1.6"/>
<path d="M0 -59.5 L35 48.2 L-56.6 -18.4 L56.6 -18.4 L-35 48.2 Z" stroke-linejoin="round"/>
</g>
</g>
<g transform="translate(192 702) scale(0.7)" fill="#0a0001">
<path d="M-150 -40 a150 150 0 0 1 300 0 q6 110 -70 130 l0 60 q-80 30 -160 0 l0 -60 q-76 -20 -70 -130 Z"/>
<path d="M-150 -50 q-70 -110 -20 -170 q10 84 60 130 Z"/>
<path d="M150 -50 q70 -110 20 -170 q-10 84 -60 130 Z"/>
</g>
<g transform="translate(192 702) scale(0.7)" fill="#ff1414" opacity="0.85">
<ellipse cx="-64" cy="10" rx="42" ry="50"/>
<ellipse cx="64" cy="10" rx="42" ry="50"/>
<path d="M0 46 l26 54 -52 0 Z"/>
</g>
<g transform="translate(1408 702) scale(0.7)" fill="#0a0001">
<path d="M-150 -40 a150 150 0 0 1 300 0 q6 110 -70 130 l0 60 q-80 30 -160 0 l0 -60 q-76 -20 -70 -130 Z"/>
<path d="M-150 -50 q-70 -110 -20 -170 q10 84 60 130 Z"/>
<path d="M150 -50 q70 -110 20 -170 q-10 84 -60 130 Z"/>
</g>
<g transform="translate(1408 702) scale(0.7)" fill="#ff1414" opacity="0.85">
<ellipse cx="-64" cy="10" rx="42" ry="50"/>
<ellipse cx="64" cy="10" rx="42" ry="50"/>
<path d="M0 46 l26 54 -52 0 Z"/>
</g>
<g fill="#ffd6d6">
<circle cx="1413.8" cy="421" r="1.5" class="mo-twinkle" style="--dur:5.1s;--delay:-2.6s"/>
<circle cx="408.6" cy="853.7" r="1.7" opacity="0.27"/>
<circle cx="1012.1" cy="263.2" r="1.8" class="mo-twinkle" style="--dur:3.7s;--delay:-0.8s"/>
<circle cx="210" cy="366.8" r="1.9" opacity="0.44"/>
<circle cx="793.7" cy="168.5" r="1.7" opacity="0.75"/>
<circle cx="781.1" cy="512.6" r="2.8" opacity="0.69"/>
<circle cx="1258.7" cy="654.9" r="1.4" opacity="0.34"/>
<circle cx="707.2" cy="133.4" r="2.0" opacity="0.84"/>
<circle cx="171.7" cy="588.4" r="1.1" class="mo-twinkle" style="--dur:4.1s;--delay:-4.5s"/>
<circle cx="821.4" cy="477.3" r="1.2" opacity="0.38"/>
<circle cx="103.6" cy="182.9" r="1.4" class="mo-twinkle" style="--dur:1.8s;--delay:-2.0s"/>
<circle cx="970.9" cy="193.7" r="1.5" opacity="0.45"/>
<circle cx="92.3" cy="593.5" r="2.0" opacity="0.33"/>
<circle cx="1262.2" cy="560.6" r="2.0" opacity="0.67"/>
<circle cx="1509.9" cy="249.3" r="1.1" opacity="0.72"/>
<circle cx="1552.7" cy="425.4" r="1.9" class="mo-twinkle" style="--dur:4.0s;--delay:-4.3s"/>
<circle cx="276.4" cy="181.8" r="1.2" opacity="0.39"/>
<circle cx="1045.5" cy="573.5" r="1.2" class="mo-twinkle" style="--dur:6.2s;--delay:-4.1s"/>
<circle cx="1105" cy="640.7" r="2.4" opacity="0.57"/>
<circle cx="145.2" cy="825.5" r="1.8" opacity="0.57"/>
<circle cx="244.1" cy="645" r="1.3" class="mo-twinkle" style="--dur:2.0s;--delay:-2.1s"/>
<circle cx="1091.4" cy="366.2" r="1.5" opacity="0.59"/>
<circle cx="565.8" cy="399.1" r="1.8" opacity="0.74"/>
<circle cx="340.1" cy="349.5" r="2.6" class="mo-twinkle" style="--dur:2.8s;--delay:-4.6s"/>
<circle cx="1068.8" cy="313.1" r="1.9" opacity="0.21"/>
<circle cx="234.7" cy="221.7" r="1.6" opacity="0.44"/>
<circle cx="1389" cy="569.2" r="2.3" opacity="0.22"/>
<circle cx="1434.3" cy="18" r="2.3" opacity="0.63"/>
<circle cx="470.9" cy="595.3" r="2.1" opacity="0.22"/>
<circle cx="187.6" cy="728.9" r="2.5" class="mo-twinkle" style="--dur:2.4s;--delay:-3.6s"/>
<circle cx="127.9" cy="479.5" r="1.8" opacity="0.81"/>
<circle cx="900.6" cy="714.2" r="2.0" opacity="0.70"/>
<circle cx="237.3" cy="54.8" r="1.5" opacity="0.65"/>
<circle cx="1473.2" cy="290.9" r="2.6" opacity="0.61"/>
<circle cx="603.7" cy="767.6" r="2.8" opacity="0.51"/>
<circle cx="198.7" cy="307.1" r="2.8" class="mo-twinkle" style="--dur:5.9s;--delay:-1.7s"/>
<circle cx="1253.6" cy="253.1" r="1.0" opacity="0.67"/>
<circle cx="1396.6" cy="708.2" r="1.3" opacity="0.35"/>
<circle cx="537.5" cy="511.9" r="1.2" opacity="0.37"/>
<circle cx="1421.6" cy="706" r="1.0" opacity="0.44"/>
<circle cx="939.5" cy="332.9" r="1.4" opacity="0.72"/>
<circle cx="837.7" cy="478.4" r="1.5" opacity="0.56"/>
<circle cx="1350.7" cy="745.2" r="1.4" class="mo-twinkle" style="--dur:4.1s;--delay:-0.1s"/>
<circle cx="1414.8" cy="629" r="2.2" opacity="0.41"/>
<circle cx="954.2" cy="342.1" r="1.4" class="mo-twinkle" style="--dur:2.5s;--delay:-4.0s"/>
<circle cx="277" cy="656.3" r="1.6" class="mo-twinkle" style="--dur:1.9s;--delay:-1.2s"/>
<circle cx="230.7" cy="877.2" r="2.4" opacity="0.65"/>
<circle cx="1500" cy="729.9" r="1.5" opacity="0.65"/>
<circle cx="520.3" cy="839.2" r="1.4" class="mo-twinkle" style="--dur:1.9s;--delay:-5.9s"/>
<circle cx="560.1" cy="397.1" r="2.0" opacity="0.80"/>
<circle cx="142.3" cy="140.3" r="1.4" class="mo-twinkle" style="--dur:2.6s;--delay:-1.0s"/>
<circle cx="350.8" cy="437.5" r="1.1" opacity="0.74"/>
<circle cx="391.5" cy="423.1" r="2.7" opacity="0.42"/>
<circle cx="466" cy="573.4" r="2.8" opacity="0.20"/>
<circle cx="1529.8" cy="854.8" r="2.2" opacity="0.20"/>
<circle cx="1410.3" cy="845.6" r="2.6" opacity="0.22"/>
<circle cx="154.2" cy="457" r="2.1" opacity="0.46"/>
<circle cx="24.7" cy="68.4" r="1.6" opacity="0.65"/>
<circle cx="1249.1" cy="223.3" r="2.7" class="mo-twinkle" style="--dur:5.1s;--delay:-1.9s"/>
<circle cx="561.2" cy="230.6" r="1.9" class="mo-twinkle" style="--dur:6.5s;--delay:-5.2s"/>
</g>
<circle cx="249" cy="257.7" r="2.9" fill="#ff5a2a" opacity="0.2"/>
<circle cx="24.5" cy="317.6" r="2.7" fill="#ff5a2a" opacity="0.3"/>
<circle cx="818.9" cy="221.5" r="2.8" fill="#ff5a2a" opacity="0.5"/>
<circle cx="981.6" cy="804.6" r="5" fill="#ff5a2a" opacity="0.2" filter="url(#g-soft)"/>
<circle cx="1394.2" cy="385.6" r="3.7" fill="#ffd6d6" opacity="0.2" filter="url(#g-soft)"/>
<circle cx="1431.6" cy="179.9" r="3.6" fill="#ffd6d6" opacity="0.2" filter="url(#g-soft)"/>
<circle cx="1241.2" cy="415.4" r="4.2" fill="#ffd6d6" opacity="0.1" filter="url(#g-soft)"/>
<circle cx="461.7" cy="86.8" r="3" fill="#ff5a2a" opacity="0.5"/>
<circle cx="1340.8" cy="729.3" r="2.8" fill="#ffd6d6" opacity="0.5"/>
<circle cx="1086.5" cy="517.1" r="5.2" fill="#ffd6d6" opacity="0.1" filter="url(#g-soft)"/>
<circle cx="250.7" cy="133.1" r="4.1" fill="#ffd6d6" opacity="0.1" filter="url(#g-soft)"/>
<circle cx="371.1" cy="144.6" r="2.8" fill="#ff1414" opacity="0.5"/>
<circle cx="632.7" cy="868.9" r="3.9" fill="#ff5a2a" opacity="0.1" filter="url(#g-soft)"/>
<circle cx="860.7" cy="368.4" r="5" fill="#ffd6d6" opacity="0.1" filter="url(#g-soft)"/>
<circle cx="670.4" cy="441.4" r="1.7" fill="#ffd6d6" opacity="0.4"/>
<circle cx="924.9" cy="739.5" r="3" fill="#ff5a2a" opacity="0.5"/>
<circle cx="313.2" cy="494.1" r="4" fill="#ffd6d6" opacity="0.2" filter="url(#g-soft)"/>
<circle cx="660.5" cy="10" r="2.8" fill="#ff5a2a" opacity="0.3"/>
<circle cx="1581.6" cy="725.6" r="4" fill="#ffd6d6" opacity="0.2" filter="url(#g-soft)"/>
<circle cx="1113.8" cy="163.9" r="4.5" fill="#ffd6d6" opacity="0.1" filter="url(#g-soft)"/>
<circle cx="543.4" cy="758.7" r="2.8" fill="#ff1414" opacity="0.4"/>
<circle cx="697.6" cy="245.7" r="4.5" fill="#ff1414" opacity="0.1" filter="url(#g-soft)"/>
<circle cx="118.1" cy="380.1" r="3.5" fill="#ffd6d6" opacity="0.6"/>
<circle cx="441.3" cy="465.5" r="2.8" fill="#ff1414" opacity="0.4"/>
<circle cx="1272.9" cy="647.9" r="5.3" fill="#ffd6d6" opacity="0.1" filter="url(#g-soft)"/>
<circle cx="703.7" cy="801.7" r="5.4" fill="#ff1414" opacity="0.1" filter="url(#g-soft)"/>
<circle cx="1070.3" cy="584" r="5.1" fill="#ffd6d6" opacity="0.2" filter="url(#g-soft)"/>
<circle cx="976.6" cy="113.2" r="2.7" fill="#ff5a2a" opacity="0.2"/>
<circle cx="642.5" cy="760.6" r="4.1" fill="#ff5a2a" opacity="0.1" filter="url(#g-soft)"/>
<circle cx="464.3" cy="811.5" r="4.6" fill="#ff1414" opacity="0.1" filter="url(#g-soft)"/>
<circle cx="1507.6" cy="585.8" r="3.6" fill="#ff5a2a" opacity="0.2" filter="url(#g-soft)"/>
<circle cx="611.7" cy="775.5" r="3" fill="#ff1414" opacity="0.5"/>
<circle cx="454.9" cy="750.8" r="2.5" fill="#ff1414" opacity="0.5"/>
<circle cx="1481.6" cy="501.8" r="5" fill="#ff1414" opacity="0.1" filter="url(#g-soft)"/>
<circle cx="86.1" cy="880.1" r="3.7" fill="#ff1414" opacity="0.1" filter="url(#g-soft)"/>
<circle cx="568.2" cy="190.9" r="3.5" fill="#ffd6d6" opacity="0.3"/>
<circle cx="60.8" cy="785.8" r="1.3" fill="#ff5a2a" opacity="0.4"/>
<circle cx="390.6" cy="785.1" r="2.8" fill="#ff5a2a" opacity="0.4"/>
<circle cx="1468.4" cy="636.4" r="2.6" fill="#ff1414" opacity="0.3"/>
<circle cx="1333.4" cy="277.2" r="5.2" fill="#ffd6d6" opacity="0.2" filter="url(#g-soft)"/>
<circle cx="667.3" cy="649.4" r="1.3" fill="#ff1414" opacity="0.3"/>
<circle cx="1293.4" cy="646.3" r="2" fill="#ff1414" opacity="0.3"/>
<circle cx="783.3" cy="172.3" r="1.5" fill="#ff1414" opacity="0.4"/>
<circle cx="1011.8" cy="218.7" r="2.5" fill="#ffd6d6" opacity="0.4"/>
<circle cx="93.5" cy="105.5" r="4.5" fill="#ff1414" opacity="0.1" filter="url(#g-soft)"/>
<circle cx="1236.5" cy="401.3" r="2.1" fill="#ff1414" opacity="0.2"/>
<circle cx="199.8" cy="680.2" r="4.1" fill="#ff5a2a" opacity="0.1" filter="url(#g-soft)"/>
<circle cx="442.3" cy="766.8" r="3.8" fill="#ffd6d6" opacity="0.1" filter="url(#g-soft)"/>
<circle cx="387.9" cy="391.3" r="1.6" fill="#ffd6d6" opacity="0.4"/>
<circle cx="1198.7" cy="573" r="1.4" fill="#ffd6d6" opacity="0.3"/>
<circle cx="162.4" cy="348.4" r="1.9" fill="#ffd6d6" opacity="0.3"/>
<circle cx="828.2" cy="75.3" r="4.9" fill="#ffd6d6" opacity="0.1" filter="url(#g-soft)"/>
<circle cx="1065.9" cy="8.2" r="4.6" fill="#ff1414" opacity="0.2" filter="url(#g-soft)"/>
<circle cx="1418.3" cy="1" r="1.2" fill="#ffd6d6" opacity="0.5"/>
<circle cx="1348.9" cy="828.1" r="1.7" fill="#ffd6d6" opacity="0.4"/>
<circle cx="102.3" cy="152.3" r="4.6" fill="#ffd6d6" opacity="0.1" filter="url(#g-soft)"/>
<circle cx="126.5" cy="324.3" r="4.4" fill="#ffd6d6" opacity="0.2" filter="url(#g-soft)"/>
<circle cx="841.7" cy="870.9" r="5.1" fill="#ffd6d6" opacity="0.1" filter="url(#g-soft)"/>
<circle cx="1056.9" cy="564.6" r="4.7" fill="#ffd6d6" opacity="0.1" filter="url(#g-soft)"/>
<circle cx="1464.1" cy="809.2" r="2.3" fill="#ff1414" opacity="0.5"/>
<circle cx="490.3" cy="876.9" r="2.4" fill="#ff5a2a" opacity="0.2"/>
<circle cx="1319.9" cy="401.2" r="2.2" fill="#ff1414" opacity="0.5"/>
<circle cx="899.3" cy="120.5" r="4.9" fill="#ff5a2a" opacity="0.1" filter="url(#g-soft)"/>
<circle cx="1115.4" cy="148.7" r="3.3" fill="#ff5a2a" opacity="0.3"/>
<circle cx="427" cy="591.3" r="1.9" fill="#ffd6d6" opacity="0.5"/>
<circle cx="95" cy="822.9" r="3.1" fill="#ff1414" opacity="0.4"/>
<circle cx="770.5" cy="794.3" r="3.7" fill="#ff1414" opacity="0.1" filter="url(#g-soft)"/>
<circle cx="1352.3" cy="604" r="4.5" fill="#ffd6d6" opacity="0.1" filter="url(#g-soft)"/>
<circle cx="1384.3" cy="803.1" r="2.3" fill="#ff1414" opacity="0.5"/>
<circle cx="1183.7" cy="623.5" r="4.6" fill="#ff5a2a" opacity="0.2" filter="url(#g-soft)"/>
<circle cx="860.6" cy="310.4" r="5" fill="#ff5a2a" opacity="0.2" filter="url(#g-soft)"/>
<circle cx="1143.7" cy="683.8" r="4.9" fill="#ffd6d6" opacity="0.1" filter="url(#g-soft)"/>
<circle cx="1444.2" cy="850.1" r="2.2" fill="#ffd6d6" opacity="0.6"/>
<circle cx="13.7" cy="704.4" r="5.1" fill="#ffd6d6" opacity="0.1" filter="url(#g-soft)"/>
<circle cx="491.4" cy="40.4" r="3.2" fill="#ff1414" opacity="0.4"/>
<circle cx="337.2" cy="284.8" r="2.4" fill="#ff1414" opacity="0.6"/>
<circle cx="379.8" cy="222.1" r="1.3" fill="#ff5a2a" opacity="0.4"/>
<circle cx="433.7" cy="551.2" r="3" fill="#ffd6d6" opacity="0.3"/>
<circle cx="900.1" cy="700.2" r="2.1" fill="#ff1414" opacity="0.3"/>
<circle cx="1436.2" cy="395.9" r="3.8" fill="#ffd6d6" opacity="0.2" filter="url(#g-soft)"/>
<circle cx="1434.6" cy="716.6" r="5.4" fill="#ff5a2a" opacity="0.2" filter="url(#g-soft)"/>
<circle cx="1154.2" cy="173.1" r="2" fill="#ffd6d6" opacity="0.4"/>
<circle cx="1142.3" cy="298.7" r="3" fill="#ff1414" opacity="0.4"/>
<circle cx="1434.1" cy="366.5" r="5" fill="#ff5a2a" opacity="0.1" filter="url(#g-soft)"/>
<circle cx="1351.9" cy="158.5" r="2.6" fill="#ffd6d6" opacity="0.5"/>
<circle cx="1206.4" cy="83.4" r="3.1" fill="#ffd6d6" opacity="0.3"/>
<circle cx="1457.5" cy="668.3" r="3.5" fill="#ffd6d6" opacity="0.4"/>
<circle cx="186.9" cy="666.2" r="1.4" fill="#ffd6d6" opacity="0.3"/>
<circle cx="993.2" cy="16.3" r="3" fill="#ff5a2a" opacity="0.2"/>
<circle cx="1468.3" cy="552.6" r="1.6" fill="#ff1414" opacity="0.2"/>
<linearGradient id="g-band" x1="0" y1="0" x2="0" y2="1"><stop offset="0%" stop-color="#120102" stop-opacity="0"/><stop offset="34%" stop-color="#120102" stop-opacity="0.62"/><stop offset="66%" stop-color="#120102" stop-opacity="0.62"/><stop offset="100%" stop-color="#120102" stop-opacity="0"/></linearGradient>
<rect x="0" y="216" width="1600" height="468" fill="url(#g-band)"/>
<rect width="1600" height="900" fill="url(#g-corner)"/>
<rect width="1600" height="900" fill="url(#g-vig)"/>
<rect width="1600" height="900" filter="url(#g-grain)" opacity="0.12"/>
</svg>
