<svg class="art art--index" viewBox="0 0 1600 900" xmlns="http://www.w3.org/2000/svg" preserveAspectRatio="xMidYMid slice" role="img" aria-label="Twenty-five shafts of coloured light, one for each level on the list, rising from a dark floor">
<defs>
<linearGradient id="ix-sky" x1="0" y1="0" x2="0.2" y2="1"><stop offset="0%" stop-color="#0a0b14"/><stop offset="62%" stop-color="#06070b"/><stop offset="100%" stop-color="#040407"/></linearGradient>
<linearGradient id="ix-g0" x1="0" y1="0" x2="0" y2="1"><stop offset="0%" stop-color="#6b8cff" stop-opacity="0"/><stop offset="34%" stop-color="#6b8cff" stop-opacity="0.5"/><stop offset="62%" stop-color="#2ad4ff" stop-opacity="0.9"/><stop offset="84%" stop-color="#2ad4ff" stop-opacity="0.5"/><stop offset="100%" stop-color="#2ad4ff" stop-opacity="0"/></linearGradient>
<linearGradient id="ix-g1" x1="0" y1="0" x2="0" y2="1"><stop offset="0%" stop-color="#3cff3c" stop-opacity="0"/><stop offset="34%" stop-color="#3cff3c" stop-opacity="0.5"/><stop offset="62%" stop-color="#ff2020" stop-opacity="0.9"/><stop offset="84%" stop-color="#ff2020" stop-opacity="0.5"/><stop offset="100%" stop-color="#ff2020" stop-opacity="0"/></linearGradient>
<linearGradient id="ix-g2" x1="0" y1="0" x2="0" y2="1"><stop offset="0%" stop-color="#4a8bff" stop-opacity="0"/><stop offset="34%" stop-color="#4a8bff" stop-opacity="0.5"/><stop offset="62%" stop-color="#ff2f4a" stop-opacity="0.9"/><stop offset="84%" stop-color="#ff2f4a" stop-opacity="0.5"/><stop offset="100%" stop-color="#ff2f4a" stop-opacity="0"/></linearGradient>
<linearGradient id="ix-g3" x1="0" y1="0" x2="0" y2="1"><stop offset="0%" stop-color="#ffe14d" stop-opacity="0"/><stop offset="34%" stop-color="#ffe14d" stop-opacity="0.5"/><stop offset="62%" stop-color="#b6ff2a" stop-opacity="0.9"/><stop offset="84%" stop-color="#b6ff2a" stop-opacity="0.5"/><stop offset="100%" stop-color="#b6ff2a" stop-opacity="0"/></linearGradient>
<linearGradient id="ix-g4" x1="0" y1="0" x2="0" y2="1"><stop offset="0%" stop-color="#3ccfff" stop-opacity="0"/><stop offset="34%" stop-color="#3ccfff" stop-opacity="0.5"/><stop offset="62%" stop-color="#7c5cff" stop-opacity="0.9"/><stop offset="84%" stop-color="#7c5cff" stop-opacity="0.5"/><stop offset="100%" stop-color="#7c5cff" stop-opacity="0"/></linearGradient>
<linearGradient id="ix-g5" x1="0" y1="0" x2="0" y2="1"><stop offset="0%" stop-color="#7ad4e8" stop-opacity="0"/><stop offset="34%" stop-color="#7ad4e8" stop-opacity="0.5"/><stop offset="62%" stop-color="#ff2f45" stop-opacity="0.9"/><stop offset="84%" stop-color="#ff2f45" stop-opacity="0.5"/><stop offset="100%" stop-color="#ff2f45" stop-opacity="0"/></linearGradient>
<linearGradient id="ix-g6" x1="0" y1="0" x2="0" y2="1"><stop offset="0%" stop-color="#ff7a95" stop-opacity="0"/><stop offset="34%" stop-color="#ff7a95" stop-opacity="0.5"/><stop offset="62%" stop-color="#ff2d5a" stop-opacity="0.9"/><stop offset="84%" stop-color="#ff2d5a" stop-opacity="0.5"/><stop offset="100%" stop-color="#ff2d5a" stop-opacity="0"/></linearGradient>
<linearGradient id="ix-g7" x1="0" y1="0" x2="0" y2="1"><stop offset="0%" stop-color="#8ff5f0" stop-opacity="0"/><stop offset="34%" stop-color="#8ff5f0" stop-opacity="0.5"/><stop offset="62%" stop-color="#25e8e0" stop-opacity="0.9"/><stop offset="84%" stop-color="#25e8e0" stop-opacity="0.5"/><stop offset="100%" stop-color="#25e8e0" stop-opacity="0"/></linearGradient>
<linearGradient id="ix-g8" x1="0" y1="0" x2="0" y2="1"><stop offset="0%" stop-color="#8f959e" stop-opacity="0"/><stop offset="34%" stop-color="#8f959e" stop-opacity="0.5"/><stop offset="62%" stop-color="#c9cdd4" stop-opacity="0.9"/><stop offset="84%" stop-color="#c9cdd4" stop-opacity="0.5"/><stop offset="100%" stop-color="#c9cdd4" stop-opacity="0"/></linearGradient>
<linearGradient id="ix-g9" x1="0" y1="0" x2="0" y2="1"><stop offset="0%" stop-color="#ff5a2a" stop-opacity="0"/><stop offset="34%" stop-color="#ff5a2a" stop-opacity="0.5"/><stop offset="62%" stop-color="#ff1414" stop-opacity="0.9"/><stop offset="84%" stop-color="#ff1414" stop-opacity="0.5"/><stop offset="100%" stop-color="#ff1414" stop-opacity="0"/></linearGradient>
<linearGradient id="ix-g10" x1="0" y1="0" x2="0" y2="1"><stop offset="0%" stop-color="#ff6bd0" stop-opacity="0"/><stop offset="34%" stop-color="#ff6bd0" stop-opacity="0.5"/><stop offset="62%" stop-color="#6b7cff" stop-opacity="0.9"/><stop offset="84%" stop-color="#6b7cff" stop-opacity="0.5"/><stop offset="100%" stop-color="#6b7cff" stop-opacity="0"/></linearGradient>
<linearGradient id="ix-g11" x1="0" y1="0" x2="0" y2="1"><stop offset="0%" stop-color="#2ae0ff" stop-opacity="0"/><stop offset="34%" stop-color="#2ae0ff" stop-opacity="0.5"/><stop offset="62%" stop-color="#ff2a3c" stop-opacity="0.9"/><stop offset="84%" stop-color="#ff2a3c" stop-opacity="0.5"/><stop offset="100%" stop-color="#ff2a3c" stop-opacity="0"/></linearGradient>
<linearGradient id="ix-g12" x1="0" y1="0" x2="0" y2="1"><stop offset="0%" stop-color="#4de0ff" stop-opacity="0"/><stop offset="34%" stop-color="#4de0ff" stop-opacity="0.5"/><stop offset="62%" stop-color="#ff4de0" stop-opacity="0.9"/><stop offset="84%" stop-color="#ff4de0" stop-opacity="0.5"/><stop offset="100%" stop-color="#ff4de0" stop-opacity="0"/></linearGradient>
<linearGradient id="ix-g13" x1="0" y1="0" x2="0" y2="1"><stop offset="0%" stop-color="#3cf0ff" stop-opacity="0"/><stop offset="34%" stop-color="#3cf0ff" stop-opacity="0.5"/><stop offset="62%" stop-color="#ff3ce0" stop-opacity="0.9"/><stop offset="84%" stop-color="#ff3ce0" stop-opacity="0.5"/><stop offset="100%" stop-color="#ff3ce0" stop-opacity="0"/></linearGradient>
<linearGradient id="ix-g14" x1="0" y1="0" x2="0" y2="1"><stop offset="0%" stop-color="#7fb4ee" stop-opacity="0"/><stop offset="34%" stop-color="#7fb4ee" stop-opacity="0.5"/><stop offset="62%" stop-color="#b9a6e8" stop-opacity="0.9"/><stop offset="84%" stop-color="#b9a6e8" stop-opacity="0.5"/><stop offset="100%" stop-color="#b9a6e8" stop-opacity="0"/></linearGradient>
<linearGradient id="ix-g15" x1="0" y1="0" x2="0" y2="1"><stop offset="0%" stop-color="#5cc8ff" stop-opacity="0"/><stop offset="34%" stop-color="#5cc8ff" stop-opacity="0.5"/><stop offset="62%" stop-color="#3ff0c8" stop-opacity="0.9"/><stop offset="84%" stop-color="#3ff0c8" stop-opacity="0.5"/><stop offset="100%" stop-color="#3ff0c8" stop-opacity="0"/></linearGradient>
<linearGradient id="ix-g16" x1="0" y1="0" x2="0" y2="1"><stop offset="0%" stop-color="#a45cff" stop-opacity="0"/><stop offset="34%" stop-color="#a45cff" stop-opacity="0.5"/><stop offset="62%" stop-color="#4fe0ff" stop-opacity="0.9"/><stop offset="84%" stop-color="#4fe0ff" stop-opacity="0.5"/><stop offset="100%" stop-color="#4fe0ff" stop-opacity="0"/></linearGradient>
<linearGradient id="ix-g17" x1="0" y1="0" x2="0" y2="1"><stop offset="0%" stop-color="#ff6a1a" stop-opacity="0"/><stop offset="34%" stop-color="#ff6a1a" stop-opacity="0.5"/><stop offset="62%" stop-color="#ff1a1a" stop-opacity="0.9"/><stop offset="84%" stop-color="#ff1a1a" stop-opacity="0.5"/><stop offset="100%" stop-color="#ff1a1a" stop-opacity="0"/></linearGradient>
<linearGradient id="ix-g18" x1="0" y1="0" x2="0" y2="1"><stop offset="0%" stop-color="#ffe459" stop-opacity="0"/><stop offset="34%" stop-color="#ffe459" stop-opacity="0.5"/><stop offset="62%" stop-color="#ffa018" stop-opacity="0.9"/><stop offset="84%" stop-color="#ffa018" stop-opacity="0.5"/><stop offset="100%" stop-color="#ffa018" stop-opacity="0"/></linearGradient>
<linearGradient id="ix-g19" x1="0" y1="0" x2="0" y2="1"><stop offset="0%" stop-color="#74f0d6" stop-opacity="0"/><stop offset="34%" stop-color="#74f0d6" stop-opacity="0.5"/><stop offset="62%" stop-color="#2ac9ff" stop-opacity="0.9"/><stop offset="84%" stop-color="#2ac9ff" stop-opacity="0.5"/><stop offset="100%" stop-color="#2ac9ff" stop-opacity="0"/></linearGradient>
<linearGradient id="ix-g20" x1="0" y1="0" x2="0" y2="1"><stop offset="0%" stop-color="#46e6ff" stop-opacity="0"/><stop offset="34%" stop-color="#46e6ff" stop-opacity="0.5"/><stop offset="62%" stop-color="#ff2b2b" stop-opacity="0.9"/><stop offset="84%" stop-color="#ff2b2b" stop-opacity="0.5"/><stop offset="100%" stop-color="#ff2b2b" stop-opacity="0"/></linearGradient>
<linearGradient id="ix-g21" x1="0" y1="0" x2="0" y2="1"><stop offset="0%" stop-color="#ff5ce0" stop-opacity="0"/><stop offset="34%" stop-color="#ff5ce0" stop-opacity="0.5"/><stop offset="62%" stop-color="#4de2ff" stop-opacity="0.9"/><stop offset="84%" stop-color="#4de2ff" stop-opacity="0.5"/><stop offset="100%" stop-color="#4de2ff" stop-opacity="0"/></linearGradient>
<linearGradient id="ix-g22" x1="0" y1="0" x2="0" y2="1"><stop offset="0%" stop-color="#ff4d8f" stop-opacity="0"/><stop offset="34%" stop-color="#ff4d8f" stop-opacity="0.5"/><stop offset="62%" stop-color="#ff1636" stop-opacity="0.9"/><stop offset="84%" stop-color="#ff1636" stop-opacity="0.5"/><stop offset="100%" stop-color="#ff1636" stop-opacity="0"/></linearGradient>
<linearGradient id="ix-g23" x1="0" y1="0" x2="0" y2="1"><stop offset="0%" stop-color="#8f9c00" stop-opacity="0"/><stop offset="34%" stop-color="#8f9c00" stop-opacity="0.5"/><stop offset="62%" stop-color="#3f43c9" stop-opacity="0.9"/><stop offset="84%" stop-color="#3f43c9" stop-opacity="0.5"/><stop offset="100%" stop-color="#3f43c9" stop-opacity="0"/></linearGradient>
<linearGradient id="ix-g24" x1="0" y1="0" x2="0" y2="1"><stop offset="0%" stop-color="#ff8b5e" stop-opacity="0"/><stop offset="34%" stop-color="#ff8b5e" stop-opacity="0.5"/><stop offset="62%" stop-color="#ff3b23" stop-opacity="0.9"/><stop offset="84%" stop-color="#ff3b23" stop-opacity="0.5"/><stop offset="100%" stop-color="#ff3b23" stop-opacity="0"/></linearGradient>
<linearGradient id="ix-vig" x1="0" y1="0" x2="0" y2="1"><stop offset="0%" stop-color="#040407" stop-opacity="0.62"/><stop offset="34%" stop-color="#040407" stop-opacity="0"/><stop offset="100%" stop-color="#040407" stop-opacity="0.9"/></linearGradient>
<radialGradient id="ix-corner" cx="50%" cy="52%" r="70%"><stop offset="52%" stop-color="#040407" stop-opacity="0"/><stop offset="100%" stop-color="#040407" stop-opacity="0.8"/></radialGradient>
<filter id="ix-wide"><feGaussianBlur stdDeviation="46"/></filter>
<filter id="ix-soft"><feGaussianBlur stdDeviation="16"/></filter>
<filter id="ix-fine"><feGaussianBlur stdDeviation="4"/></filter>
</defs>
<rect width="1600" height="900" fill="url(#ix-sky)"/>
<g fill="#dfe3f2">
<circle cx="603.1" cy="639.5" r="1.2" opacity="0.2"/>
<circle cx="1394.7" cy="439.2" r="0.4" opacity="0.6"/>
<circle cx="409.1" cy="211.1" r="0.8" opacity="0.4"/>
<circle cx="199" cy="473.8" r="1.2" opacity="0.4"/>
<circle cx="1271.1" cy="431.2" r="1.2" opacity="0.2"/>
<circle cx="573.9" cy="323.9" r="0.5" opacity="0.6"/>
<circle cx="1017.6" cy="67.8" r="1" opacity="0.3"/>
<circle cx="303" cy="111" r="0.9" opacity="0.2"/>
<circle cx="900.9" cy="355.3" r="0.5" opacity="0.5"/>
<circle cx="64.8" cy="118.7" r="1.2" opacity="0.2"/>
<circle cx="678.7" cy="386.1" r="0.8" opacity="0.4"/>
<circle cx="807.6" cy="333.1" r="0.5" opacity="0.5"/>
<circle cx="452.6" cy="32.9" r="0.8" opacity="0.5"/>
<circle cx="1006.1" cy="315.5" r="0.9" opacity="0.2"/>
<circle cx="988.9" cy="241.8" r="0.5" opacity="0.2"/>
<circle cx="148.2" cy="472.3" r="1.3" opacity="0.5"/>
<circle cx="351.2" cy="101.5" r="1.4" opacity="0.3"/>
<circle cx="267.5" cy="394.3" r="1" opacity="0.4"/>
<circle cx="723.1" cy="209.6" r="0.9" opacity="0.3"/>
<circle cx="1090.1" cy="309.3" r="0.8" opacity="0.6"/>
<circle cx="177.2" cy="521.4" r="0.8" opacity="0.5"/>
<circle cx="1133.1" cy="390.6" r="1" opacity="0.2"/>
<circle cx="25.7" cy="515.1" r="0.7" opacity="0.2"/>
<circle cx="1298.2" cy="407.8" r="0.4" opacity="0.4"/>
<circle cx="261.7" cy="597" r="0.7" opacity="0.6"/>
<circle cx="980.1" cy="54" r="0.8" opacity="0.6"/>
<circle cx="1121.6" cy="106.9" r="0.8" opacity="0.3"/>
<circle cx="149.4" cy="409.6" r="1.1" opacity="0.2"/>
<circle cx="883" cy="594.2" r="1.3" opacity="0.2"/>
<circle cx="119.9" cy="629.5" r="0.7" opacity="0.2"/>
<circle cx="1278.2" cy="182.3" r="1.1" opacity="0.5"/>
<circle cx="468.2" cy="318.1" r="0.7" opacity="0.5"/>
<circle cx="454.4" cy="188.9" r="1.3" opacity="0.3"/>
<circle cx="698.6" cy="356" r="0.4" opacity="0.3"/>
<circle cx="1189.7" cy="677" r="0.7" opacity="0.3"/>
<circle cx="91.1" cy="336.8" r="0.8" opacity="0.4"/>
<circle cx="477.8" cy="216.6" r="1.3" opacity="0.5"/>
<circle cx="576.1" cy="48.4" r="0.5" opacity="0.2"/>
<circle cx="208.7" cy="402" r="0.9" opacity="0.2"/>
<circle cx="1405.1" cy="462.6" r="1.1" opacity="0.5"/>
<circle cx="502.1" cy="623" r="1.4" opacity="0.6"/>
<circle cx="73.3" cy="587" r="1.4" opacity="0.2"/>
<circle cx="1384.7" cy="562.6" r="0.4" opacity="0.5"/>
<circle cx="1215" cy="517" r="0.5" opacity="0.6"/>
<circle cx="118.4" cy="58.4" r="1.3" opacity="0.4"/>
<circle cx="285.5" cy="272.4" r="1" opacity="0.2"/>
<circle cx="1463.2" cy="466.4" r="0.8" opacity="0.3"/>
<circle cx="185" cy="680.2" r="0.7" opacity="0.6"/>
<circle cx="864" cy="370.8" r="0.6" opacity="0.4"/>
<circle cx="157.8" cy="309.1" r="1" opacity="0.6"/>
<circle cx="353.5" cy="125.3" r="1.2" opacity="0.2"/>
<circle cx="311.4" cy="330" r="0.8" opacity="0.6"/>
<circle cx="104.5" cy="601" r="0.9" opacity="0.2"/>
<circle cx="381.2" cy="627.1" r="0.6" opacity="0.3"/>
<circle cx="62.3" cy="335.8" r="1.1" opacity="0.5"/>
<circle cx="544.2" cy="293.9" r="1.2" opacity="0.5"/>
<circle cx="713.2" cy="38.2" r="1.3" opacity="0.3"/>
<circle cx="761.2" cy="32.4" r="0.4" opacity="0.2"/>
<circle cx="870.6" cy="180.2" r="1.2" opacity="0.2"/>
<circle cx="1048.2" cy="14.8" r="0.8" opacity="0.6"/>
<circle cx="411.2" cy="216.6" r="0.4" opacity="0.5"/>
<circle cx="789" cy="172.5" r="1" opacity="0.2"/>
<circle cx="1420.5" cy="293.4" r="0.5" opacity="0.2"/>
<circle cx="85.5" cy="526.7" r="0.5" opacity="0.4"/>
<circle cx="949.1" cy="65" r="1" opacity="0.4"/>
<circle cx="1490.9" cy="646.4" r="1.4" opacity="0.4"/>
<circle cx="777.8" cy="296.7" r="0.5" opacity="0.4"/>
<circle cx="1598.6" cy="347.4" r="1.3" opacity="0.2"/>
<circle cx="600.3" cy="292.1" r="1.4" opacity="0.3"/>
<circle cx="1216.3" cy="102.3" r="1.2" opacity="0.3"/>
<circle cx="1586.7" cy="11.4" r="0.7" opacity="0.5"/>
<circle cx="704.4" cy="192.5" r="1.3" opacity="0.3"/>
<circle cx="1406.9" cy="376.5" r="0.5" opacity="0.2"/>
<circle cx="1387.9" cy="629.9" r="0.6" opacity="0.6"/>
<circle cx="1341.5" cy="368.7" r="1.2" opacity="0.4"/>
<circle cx="54.7" cy="202.8" r="0.7" opacity="0.5"/>
<circle cx="438.5" cy="480.4" r="1" opacity="0.2"/>
<circle cx="733.9" cy="379.2" r="1.1" opacity="0.3"/>
<circle cx="1579.8" cy="555.7" r="0.4" opacity="0.5"/>
<circle cx="976.8" cy="648.3" r="0.6" opacity="0.5"/>
<circle cx="1144.9" cy="275.8" r="0.8" opacity="0.4"/>
<circle cx="1565.7" cy="473.4" r="1" opacity="0.4"/>
<circle cx="1347.6" cy="406.5" r="1.1" opacity="0.1"/>
<circle cx="1385" cy="664.6" r="1" opacity="0.4"/>
<circle cx="1495.2" cy="390.1" r="1.3" opacity="0.4"/>
<circle cx="911.8" cy="632.8" r="1.3" opacity="0.4"/>
<circle cx="867.7" cy="381.2" r="0.9" opacity="0.3"/>
<circle cx="363.4" cy="199.3" r="0.6" opacity="0.6"/>
<circle cx="650.8" cy="604.4" r="0.9" opacity="0.6"/>
<circle cx="949" cy="236.4" r="0.8" opacity="0.2"/>
<circle cx="525.5" cy="197.6" r="0.7" opacity="0.3"/>
<circle cx="40.5" cy="652.5" r="1.2" opacity="0.3"/>
<circle cx="1341.8" cy="34" r="1" opacity="0.4"/>
<circle cx="1410.3" cy="676" r="1" opacity="0.5"/>
<circle cx="1117.4" cy="63.7" r="0.5" opacity="0.2"/>
<circle cx="1207.3" cy="325.4" r="0.8" opacity="0.4"/>
<circle cx="1502.1" cy="333" r="1.2" opacity="0.3"/>
<circle cx="1047" cy="537.3" r="0.6" opacity="0.6"/>
<circle cx="314.3" cy="108.2" r="1.4" opacity="0.2"/>
<circle cx="687.4" cy="648.7" r="0.6" opacity="0.4"/>
<circle cx="1147" cy="53.8" r="0.5" opacity="0.6"/>
<circle cx="1322.7" cy="460.4" r="1" opacity="0.4"/>
<circle cx="1455.3" cy="16.7" r="0.7" opacity="0.3"/>
<circle cx="1025.9" cy="648.1" r="0.6" opacity="0.2"/>
<circle cx="388.3" cy="589.9" r="1" opacity="0.2"/>
<circle cx="1134" cy="281.7" r="0.5" opacity="0.3"/>
<circle cx="1366.2" cy="656" r="0.8" opacity="0.5"/>
<circle cx="1492.5" cy="73.5" r="0.6" opacity="0.3"/>
<circle cx="528.9" cy="441.2" r="1.4" opacity="0.2"/>
<circle cx="443.9" cy="354.6" r="1.1" opacity="0.2"/>
<circle cx="901.9" cy="428.5" r="1.2" opacity="0.3"/>
<circle cx="512" cy="397.9" r="0.8" opacity="0.3"/>
<circle cx="1243.7" cy="671.7" r="1.4" opacity="0.2"/>
<circle cx="865.8" cy="374.5" r="1" opacity="0.2"/>
<circle cx="518.3" cy="272.8" r="0.6" opacity="0.4"/>
<circle cx="1453.1" cy="455.7" r="0.6" opacity="0.2"/>
<circle cx="585.8" cy="570.1" r="0.4" opacity="0.2"/>
<circle cx="1346" cy="251.9" r="0.6" opacity="0.4"/>
<circle cx="64.6" cy="491.6" r="1.3" opacity="0.1"/>
<circle cx="839.5" cy="641.7" r="0.7" opacity="0.3"/>
<circle cx="1412.2" cy="1" r="0.4" opacity="0.4"/>
<circle cx="1322" cy="394.4" r="1.1" opacity="0.3"/>
<circle cx="1537.2" cy="217.8" r="1" opacity="0.2"/>
<circle cx="485.5" cy="425.7" r="0.5" opacity="0.5"/>
<circle cx="385.4" cy="544" r="0.5" opacity="0.4"/>
<circle cx="792.6" cy="169.2" r="1.2" opacity="0.5"/>
<circle cx="648.8" cy="379.6" r="0.8" opacity="0.5"/>
<circle cx="54.7" cy="36.2" r="1" opacity="0.2"/>
<circle cx="1406.5" cy="614.2" r="0.6" opacity="0.2"/>
<circle cx="1394.5" cy="46.6" r="0.9" opacity="0.2"/>
<circle cx="1586.8" cy="290" r="1.1" opacity="0.3"/>
<circle cx="1398.8" cy="502.3" r="0.4" opacity="0.2"/>
<circle cx="487.2" cy="224.5" r="0.4" opacity="0.4"/>
<circle cx="40.8" cy="372.3" r="1.2" opacity="0.3"/>
<circle cx="483.7" cy="591.7" r="1.2" opacity="0.5"/>
<circle cx="156.5" cy="176.3" r="0.8" opacity="0.4"/>
<circle cx="1211.9" cy="621.3" r="1" opacity="0.2"/>
<circle cx="52.7" cy="276.1" r="1.3" opacity="0.2"/>
<circle cx="1562.4" cy="9.5" r="0.4" opacity="0.3"/>
<circle cx="113.1" cy="234.3" r="1.4" opacity="0.6"/>
<circle cx="1265.8" cy="469.4" r="0.8" opacity="0.3"/>
<circle cx="842.5" cy="234.6" r="1" opacity="0.2"/>
<circle cx="829.5" cy="278.8" r="0.5" opacity="0.2"/>
<circle cx="723.8" cy="250.8" r="0.8" opacity="0.6"/>
<circle cx="455.3" cy="259.4" r="0.8" opacity="0.6"/>
<circle cx="1579.9" cy="515.2" r="0.4" opacity="0.4"/>
<circle cx="1526.1" cy="170.8" r="1.2" opacity="0.4"/>
<circle cx="866.6" cy="651" r="0.7" opacity="0.6"/>
<circle cx="476.5" cy="588" r="1.1" opacity="0.4"/>
<circle cx="707.4" cy="108.5" r="0.7" opacity="0.5"/>
</g>
<g opacity="0.5" filter="url(#ix-wide)">
<path d="M8.2 504 L55.8 504 L88.6 690 L-24.6 690 Z" fill="url(#ix-g0)"/>
<path d="M72.2 497.9 L119.8 497.9 L152.6 690 L39.4 690 Z" fill="url(#ix-g1)"/>
<path d="M136.2 487.9 L183.8 487.9 L216.6 690 L103.4 690 Z" fill="url(#ix-g2)"/>
<path d="M200.2 475.6 L247.8 475.6 L280.6 690 L167.4 690 Z" fill="url(#ix-g3)"/>
<path d="M264.2 461.5 L311.8 461.5 L344.6 690 L231.4 690 Z" fill="url(#ix-g4)"/>
<path d="M328.2 445.9 L375.8 445.9 L408.6 690 L295.4 690 Z" fill="url(#ix-g5)"/>
<path d="M392.2 429 L439.8 429 L472.6 690 L359.4 690 Z" fill="url(#ix-g6)"/>
<path d="M456.2 411 L503.8 411 L536.6 690 L423.4 690 Z" fill="url(#ix-g7)"/>
<path d="M520.2 391.9 L567.8 391.9 L600.6 690 L487.4 690 Z" fill="url(#ix-g8)"/>
<path d="M584.2 371.8 L631.8 371.8 L664.6 690 L551.4 690 Z" fill="url(#ix-g9)"/>
<path d="M648.2 350.8 L695.8 350.8 L728.6 690 L615.4 690 Z" fill="url(#ix-g10)"/>
<path d="M712.2 328.9 L759.8 328.9 L792.6 690 L679.4 690 Z" fill="url(#ix-g11)"/>
<path d="M776.2 306.2 L823.8 306.2 L856.6 690 L743.4 690 Z" fill="url(#ix-g12)"/>
<path d="M840.2 282.7 L887.8 282.7 L920.6 690 L807.4 690 Z" fill="url(#ix-g13)"/>
<path d="M904.2 258.6 L951.8 258.6 L984.6 690 L871.4 690 Z" fill="url(#ix-g14)"/>
<path d="M968.2 233.7 L1015.8 233.7 L1048.6 690 L935.4 690 Z" fill="url(#ix-g15)"/>
<path d="M1032.2 208.1 L1079.8 208.1 L1112.6 690 L999.4 690 Z" fill="url(#ix-g16)"/>
<path d="M1096.2 181.9 L1143.8 181.9 L1176.6 690 L1063.4 690 Z" fill="url(#ix-g17)"/>
<path d="M1160.2 155.1 L1207.8 155.1 L1240.6 690 L1127.4 690 Z" fill="url(#ix-g18)"/>
<path d="M1224.2 127.6 L1271.8 127.6 L1304.6 690 L1191.4 690 Z" fill="url(#ix-g19)"/>
<path d="M1288.2 99.6 L1335.8 99.6 L1368.6 690 L1255.4 690 Z" fill="url(#ix-g20)"/>
<path d="M1352.2 71 L1399.8 71 L1432.6 690 L1319.4 690 Z" fill="url(#ix-g21)"/>
<path d="M1416.2 41.9 L1463.8 41.9 L1496.6 690 L1383.4 690 Z" fill="url(#ix-g22)"/>
<path d="M1480.2 12.2 L1527.8 12.2 L1560.6 690 L1447.4 690 Z" fill="url(#ix-g23)"/>
<path d="M1544.2 -18 L1591.8 -18 L1624.6 690 L1511.4 690 Z" fill="url(#ix-g24)"/>
</g>
<g opacity="0.75" filter="url(#ix-soft)">
<path d="M19.7 504 L44.3 504 L61.4 690 L2.6 690 Z" fill="url(#ix-g0)"/>
<path d="M83.7 497.9 L108.3 497.9 L125.4 690 L66.6 690 Z" fill="url(#ix-g1)"/>
<path d="M147.7 487.9 L172.3 487.9 L189.4 690 L130.6 690 Z" fill="url(#ix-g2)"/>
<path d="M211.7 475.6 L236.3 475.6 L253.4 690 L194.6 690 Z" fill="url(#ix-g3)"/>
<path d="M275.7 461.5 L300.3 461.5 L317.4 690 L258.6 690 Z" fill="url(#ix-g4)"/>
<path d="M339.7 445.9 L364.3 445.9 L381.4 690 L322.6 690 Z" fill="url(#ix-g5)"/>
<path d="M403.7 429 L428.3 429 L445.4 690 L386.6 690 Z" fill="url(#ix-g6)"/>
<path d="M467.7 411 L492.3 411 L509.4 690 L450.6 690 Z" fill="url(#ix-g7)"/>
<path d="M531.7 391.9 L556.3 391.9 L573.4 690 L514.6 690 Z" fill="url(#ix-g8)"/>
<path d="M595.7 371.8 L620.3 371.8 L637.4 690 L578.6 690 Z" fill="url(#ix-g9)"/>
<path d="M659.7 350.8 L684.3 350.8 L701.4 690 L642.6 690 Z" fill="url(#ix-g10)"/>
<path d="M723.7 328.9 L748.3 328.9 L765.4 690 L706.6 690 Z" fill="url(#ix-g11)"/>
<path d="M787.7 306.2 L812.3 306.2 L829.4 690 L770.6 690 Z" fill="url(#ix-g12)"/>
<path d="M851.7 282.7 L876.3 282.7 L893.4 690 L834.6 690 Z" fill="url(#ix-g13)"/>
<path d="M915.7 258.6 L940.3 258.6 L957.4 690 L898.6 690 Z" fill="url(#ix-g14)"/>
<path d="M979.7 233.7 L1004.3 233.7 L1021.4 690 L962.6 690 Z" fill="url(#ix-g15)"/>
<path d="M1043.7 208.1 L1068.3 208.1 L1085.4 690 L1026.6 690 Z" fill="url(#ix-g16)"/>
<path d="M1107.7 181.9 L1132.3 181.9 L1149.4 690 L1090.6 690 Z" fill="url(#ix-g17)"/>
<path d="M1171.7 155.1 L1196.3 155.1 L1213.4 690 L1154.6 690 Z" fill="url(#ix-g18)"/>
<path d="M1235.7 127.6 L1260.3 127.6 L1277.4 690 L1218.6 690 Z" fill="url(#ix-g19)"/>
<path d="M1299.7 99.6 L1324.3 99.6 L1341.4 690 L1282.6 690 Z" fill="url(#ix-g20)"/>
<path d="M1363.7 71 L1388.3 71 L1405.4 690 L1346.6 690 Z" fill="url(#ix-g21)"/>
<path d="M1427.7 41.9 L1452.3 41.9 L1469.4 690 L1410.6 690 Z" fill="url(#ix-g22)"/>
<path d="M1491.7 12.2 L1516.3 12.2 L1533.4 690 L1474.6 690 Z" fill="url(#ix-g23)"/>
<path d="M1555.7 -18 L1580.3 -18 L1597.4 690 L1538.6 690 Z" fill="url(#ix-g24)"/>
</g>
<g opacity="1.0">
<path d="M26.3 504 L37.7 504 L45.5 690 L18.5 690 Z" fill="url(#ix-g0)"/>
<path d="M90.3 497.9 L101.7 497.9 L109.5 690 L82.5 690 Z" fill="url(#ix-g1)"/>
<path d="M154.3 487.9 L165.7 487.9 L173.5 690 L146.5 690 Z" fill="url(#ix-g2)"/>
<path d="M218.3 475.6 L229.7 475.6 L237.5 690 L210.5 690 Z" fill="url(#ix-g3)"/>
<path d="M282.3 461.5 L293.7 461.5 L301.5 690 L274.5 690 Z" fill="url(#ix-g4)"/>
<path d="M346.3 445.9 L357.7 445.9 L365.5 690 L338.5 690 Z" fill="url(#ix-g5)"/>
<path d="M410.3 429 L421.7 429 L429.5 690 L402.5 690 Z" fill="url(#ix-g6)"/>
<path d="M474.3 411 L485.7 411 L493.5 690 L466.5 690 Z" fill="url(#ix-g7)"/>
<path d="M538.3 391.9 L549.7 391.9 L557.5 690 L530.5 690 Z" fill="url(#ix-g8)"/>
<path d="M602.3 371.8 L613.7 371.8 L621.5 690 L594.5 690 Z" fill="url(#ix-g9)"/>
<path d="M666.3 350.8 L677.7 350.8 L685.5 690 L658.5 690 Z" fill="url(#ix-g10)"/>
<path d="M730.3 328.9 L741.7 328.9 L749.5 690 L722.5 690 Z" fill="url(#ix-g11)"/>
<path d="M794.3 306.2 L805.7 306.2 L813.5 690 L786.5 690 Z" fill="url(#ix-g12)"/>
<path d="M858.3 282.7 L869.7 282.7 L877.5 690 L850.5 690 Z" fill="url(#ix-g13)"/>
<path d="M922.3 258.6 L933.7 258.6 L941.5 690 L914.5 690 Z" fill="url(#ix-g14)"/>
<path d="M986.3 233.7 L997.7 233.7 L1005.5 690 L978.5 690 Z" fill="url(#ix-g15)"/>
<path d="M1050.3 208.1 L1061.7 208.1 L1069.5 690 L1042.5 690 Z" fill="url(#ix-g16)"/>
<path d="M1114.3 181.9 L1125.7 181.9 L1133.5 690 L1106.5 690 Z" fill="url(#ix-g17)"/>
<path d="M1178.3 155.1 L1189.7 155.1 L1197.5 690 L1170.5 690 Z" fill="url(#ix-g18)"/>
<path d="M1242.3 127.6 L1253.7 127.6 L1261.5 690 L1234.5 690 Z" fill="url(#ix-g19)"/>
<path d="M1306.3 99.6 L1317.7 99.6 L1325.5 690 L1298.5 690 Z" fill="url(#ix-g20)"/>
<path d="M1370.3 71 L1381.7 71 L1389.5 690 L1362.5 690 Z" fill="url(#ix-g21)"/>
<path d="M1434.3 41.9 L1445.7 41.9 L1453.5 690 L1426.5 690 Z" fill="url(#ix-g22)"/>
<path d="M1498.3 12.2 L1509.7 12.2 L1517.5 690 L1490.5 690 Z" fill="url(#ix-g23)"/>
<path d="M1562.3 -18 L1573.7 -18 L1581.5 690 L1554.5 690 Z" fill="url(#ix-g24)"/>
</g>
<rect width="1600" height="900" fill="url(#ix-corner)"/>
<rect width="1600" height="900" fill="url(#ix-vig)"/>
</svg>
