<svg class="art art--idols" viewBox="0 0 1600 900" xmlns="http://www.w3.org/2000/svg" preserveAspectRatio="xMidYMid slice" role="img" aria-label="Saturated rainbow burst with gears and neon shards">
<defs>
<linearGradient id="g-bg" x1="0" y1="0" x2="0.3" y2="1"><stop offset="0%" stop-color="#3a0a5e"/><stop offset="58%" stop-color="#12042c"/><stop offset="100%" stop-color="#0a0220"/></linearGradient>
<linearGradient id="g-slab" x1="0" y1="0" x2="0.4" y2="1"><stop offset="0%" stop-color="#ff3ce0" stop-opacity="0.42"/><stop offset="100%" stop-color="#0a0220" stop-opacity="0.72"/></linearGradient>
<linearGradient id="g-blade" x1="0" y1="0" x2="1" y2="1"><stop offset="0%" stop-color="#ffe94d" stop-opacity="0.7"/><stop offset="60%" stop-color="#ff3ce0" stop-opacity="0.28"/><stop offset="100%" stop-color="#3cf0ff" stop-opacity="0"/></linearGradient>
<linearGradient id="g-beam" x1="0" y1="0" x2="1" y2="0"><stop offset="0%" stop-color="#ff3ce0" stop-opacity="0"/><stop offset="30%" stop-color="#ffe94d"/><stop offset="70%" stop-color="#ff3ce0"/><stop offset="100%" stop-color="#ff3ce0" stop-opacity="0"/></linearGradient>
<radialGradient id="g-orb" cx="42%" cy="38%" r="62%"><stop offset="0%" stop-color="#ffe94d"/><stop offset="38%" stop-color="#ff3ce0"/><stop offset="78%" stop-color="#3cf0ff" stop-opacity="0.7"/><stop offset="100%" stop-color="#0a0220"/></radialGradient>
<radialGradient id="g-halo" cx="50%" cy="50%" r="50%"><stop offset="0%" stop-color="#ff3ce0" stop-opacity="0.42"/><stop offset="100%" stop-color="#ff3ce0" stop-opacity="0"/></radialGradient>
<linearGradient id="g-vig" x1="0" y1="0" x2="0" y2="1"><stop offset="0%" stop-color="#0a0220" stop-opacity="0.42"/><stop offset="26%" stop-color="#0a0220" stop-opacity="0.02"/><stop offset="100%" stop-color="#0a0220" stop-opacity="0.5"/></linearGradient>
<filter id="g-glow" x="-70%" y="-70%" width="240%" height="240%"><feGaussianBlur stdDeviation="8" result="b"/><feFlood flood-color="#ff3ce0" result="fc"/><feComposite in="fc" in2="b" operator="in" result="g"/><feMerge><feMergeNode in="g"/><feMergeNode in="g"/><feMergeNode in="SourceGraphic"/></feMerge></filter>
<filter id="g-soft"><feGaussianBlur stdDeviation="20"/></filter>
<radialGradient id="g-corner" cx="50%" cy="46%" r="72%"><stop offset="55%" stop-color="#0a0220" stop-opacity="0"/><stop offset="100%" stop-color="#0a0220" stop-opacity="0.72"/></radialGradient>
<filter id="g-grain"><feTurbulence type="fractalNoise" baseFrequency="0.85" numOctaves="4"/><feColorMatrix type="saturate" values="0"/></filter>
</defs>
<rect width="1600" height="900" fill="url(#g-bg)"/>
<g filter="url(#g-soft)">
<ellipse cx="754.2" cy="591.7" rx="359.9" ry="102.8" fill="#ff3ce0" opacity="0.1"/>
<ellipse cx="768.6" cy="579.1" rx="298.1" ry="218.3" fill="#ff3ce0" opacity="0.1"/>
<ellipse cx="1090.4" cy="130.8" rx="292" ry="106" fill="#ff3ce0" opacity="0.1"/>
<ellipse cx="1373.9" cy="67.1" rx="366.1" ry="133.9" fill="#3cf0ff" opacity="0.1"/>
<ellipse cx="57.2" cy="827" rx="405.9" ry="185.9" fill="#ff3ce0" opacity="0.1"/>
<ellipse cx="1676.8" cy="852" rx="193.8" ry="147.7" fill="#ff3ce0" opacity="0.1"/>
<ellipse cx="1487.7" cy="502.3" rx="452.8" ry="221.7" fill="#3a0a5e" opacity="0.1"/>
<ellipse cx="1368.3" cy="360.5" rx="285.7" ry="175.4" fill="#3cf0ff" opacity="0.1"/>
</g>
<g filter="url(#g-soft)" opacity="0.5">
<path d="M847.5 -4.7 L884.1 -4.7 L993.4 960 L922.2 960 Z" fill="#ffe94d" opacity="0.1"/>
<path d="M1475.3 35.9 L1536.2 35.9 L1492.2 960 L1360.9 960 Z" fill="#ffe94d" opacity="0.1"/>
<path d="M548.4 -16.8 L639.6 -16.8 L643.6 960 L468.2 960 Z" fill="#ffe94d" opacity="0.1"/>
<path d="M10.3 -115.4 L94.4 -115.4 L28.3 960 L-112.8 960 Z" fill="#ffe94d" opacity="0.1"/>
<path d="M1187.2 -80.3 L1223.4 -80.3 L1221.9 960 L1146.1 960 Z" fill="#ffe94d" opacity="0.1"/>
</g>
<g transform="translate(880 324)" opacity="0.5">
<path d="M0 0 L672 0 L669.7 55.2 Z" fill="url(#g-blade)"/>
<path d="M0 0 L792.3 195.3 L773.6 259.6 Z" fill="url(#g-blade)"/>
<path d="M0 0 L850 446.1 L810.6 514.4 Z" fill="url(#g-blade)"/>
<path d="M0 0 L503 445.6 L464.7 485.4 Z" fill="url(#g-blade)"/>
<path d="M0 0 L463.5 671.6 L406.9 707.3 Z" fill="url(#g-blade)"/>
<path d="M0 0 L340.4 897.6 L265.6 922.5 Z" fill="url(#g-blade)"/>
<path d="M0 0 L81 667.1 L26 671.5 Z" fill="url(#g-blade)"/>
<path d="M0 0 L-98.4 810.1 L-164.5 799.2 Z" fill="url(#g-blade)"/>
<path d="M0 0 L-340.4 897.6 L-412.9 866.6 Z" fill="url(#g-blade)"/>
<path d="M0 0 L-381.7 553 L-425.8 519.8 Z" fill="url(#g-blade)"/>
<path d="M0 0 L-610.8 541.1 L-653.1 489.2 Z" fill="url(#g-blade)"/>
<path d="M0 0 L-850 446.1 L-883.8 374.9 Z" fill="url(#g-blade)"/>
<path d="M0 0 L-652.5 160.8 L-663.5 106.7 Z" fill="url(#g-blade)"/>
<path d="M0 0 L-816 -0 L-813.2 -67 Z" fill="url(#g-blade)"/>
<path d="M0 0 L-932.1 -229.7 L-910.1 -305.5 Z" fill="url(#g-blade)"/>
<path d="M0 0 L-595 -312.3 L-567.4 -360.1 Z" fill="url(#g-blade)"/>
<path d="M0 0 L-610.8 -541.1 L-564.3 -589.4 Z" fill="url(#g-blade)"/>
<path d="M0 0 L-545.3 -790.1 L-478.7 -832.2 Z" fill="url(#g-blade)"/>
<path d="M0 0 L-238.3 -628.3 L-185.9 -645.8 Z" fill="url(#g-blade)"/>
<path d="M0 0 L-98.4 -810.1 L-31.5 -815.4 Z" fill="url(#g-blade)"/>
<path d="M0 0 L115.7 -953 L193.5 -940.3 Z" fill="url(#g-blade)"/>
<path d="M0 0 L238.3 -628.3 L289.1 -606.7 Z" fill="url(#g-blade)"/>
<path d="M0 0 L463.5 -671.6 L517.1 -631.2 Z" fill="url(#g-blade)"/>
<path d="M0 0 L718.6 -636.6 L768.4 -575.5 Z" fill="url(#g-blade)"/>
<path d="M0 0 L595 -312.3 L618.6 -262.4 Z" fill="url(#g-blade)"/>
<path d="M0 0 L792.3 -195.3 L805.6 -129.6 Z" fill="url(#g-blade)"/>
</g>
<g transform="translate(943.7 620.8) rotate(-4.5)" opacity="0.73">
<rect x="-108.7" y="-63.4" width="217.4" height="126.8" fill="url(#g-slab)"/>
<rect x="-108.7" y="-63.4" width="217.4" height="126.8" fill="none" stroke="#ff3ce0" stroke-width="6" filter="url(#g-glow)"/>
<rect x="-95.7" y="-50.4" width="191.4" height="100.8" fill="none" stroke="#ffe94d" stroke-width="2" opacity="0.7"/>
</g>
<g transform="translate(1077.3 718.8) rotate(-1)" opacity="0.77">
<rect x="-85.4" y="-94.4" width="170.8" height="188.9" fill="url(#g-slab)"/>
<rect x="-85.4" y="-94.4" width="170.8" height="188.9" fill="none" stroke="#ff3ce0" stroke-width="6" filter="url(#g-glow)"/>
<rect x="-72.4" y="-81.4" width="144.8" height="162.9" fill="none" stroke="#ffe94d" stroke-width="2" opacity="0.7"/>
</g>
<g transform="translate(352.1 651.4) rotate(12.5)" opacity="0.92">
<rect x="-83.7" y="-75.3" width="167.4" height="150.7" fill="url(#g-slab)"/>
<rect x="-83.7" y="-75.3" width="167.4" height="150.7" fill="none" stroke="#ff3ce0" stroke-width="6" filter="url(#g-glow)"/>
<rect x="-70.7" y="-62.3" width="141.4" height="124.7" fill="none" stroke="#ffe94d" stroke-width="2" opacity="0.7"/>
</g>
<g transform="translate(1224.3 207.7) rotate(-7.1)" opacity="0.60">
<rect x="-132.6" y="-70.1" width="265.1" height="140.1" fill="url(#g-slab)"/>
<rect x="-132.6" y="-70.1" width="265.1" height="140.1" fill="none" stroke="#ff3ce0" stroke-width="6" filter="url(#g-glow)"/>
<rect x="-119.6" y="-57.1" width="239.1" height="114.1" fill="none" stroke="#ffe94d" stroke-width="2" opacity="0.7"/>
</g>
<g transform="translate(599.8 483.5)" fill="none" stroke="#ff3ce0" opacity="0.57">
<circle r="33.3" stroke-width="8.6"/>
<circle r="12" stroke-width="4.3"/>
<path d="M34.9 0 L43.2 0" stroke-width="7.3"/>
<path d="M30.2 17.5 L37.4 21.6" stroke-width="7.3"/>
<path d="M17.5 30.2 L21.6 37.4" stroke-width="7.3"/>
<path d="M0 34.9 L0 43.2" stroke-width="7.3"/>
<path d="M-17.5 30.2 L-21.6 37.4" stroke-width="7.3"/>
<path d="M-30.2 17.5 L-37.4 21.6" stroke-width="7.3"/>
<path d="M-34.9 0 L-43.2 0" stroke-width="7.3"/>
<path d="M-30.2 -17.5 L-37.4 -21.6" stroke-width="7.3"/>
<path d="M-17.5 -30.2 L-21.6 -37.4" stroke-width="7.3"/>
<path d="M-0 -34.9 L-0 -43.2" stroke-width="7.3"/>
<path d="M17.5 -30.2 L21.6 -37.4" stroke-width="7.3"/>
<path d="M30.2 -17.5 L37.4 -21.6" stroke-width="7.3"/>
</g>
<g transform="translate(1350 571.4)" fill="none" stroke="#ff3ce0" opacity="0.29">
<circle r="37.5" stroke-width="9.8"/>
<circle r="13.5" stroke-width="4.9"/>
<path d="M39.4 0 L48.8 0" stroke-width="8.3"/>
<path d="M34.1 19.7 L42.2 24.4" stroke-width="8.3"/>
<path d="M19.7 34.1 L24.4 42.2" stroke-width="8.3"/>
<path d="M0 39.4 L0 48.8" stroke-width="8.3"/>
<path d="M-19.7 34.1 L-24.4 42.2" stroke-width="8.3"/>
<path d="M-34.1 19.7 L-42.2 24.4" stroke-width="8.3"/>
<path d="M-39.4 0 L-48.8 0" stroke-width="8.3"/>
<path d="M-34.1 -19.7 L-42.2 -24.4" stroke-width="8.3"/>
<path d="M-19.7 -34.1 L-24.4 -42.2" stroke-width="8.3"/>
<path d="M-0 -39.4 L-0 -48.8" stroke-width="8.3"/>
<path d="M19.7 -34.1 L24.4 -42.2" stroke-width="8.3"/>
<path d="M34.1 -19.7 L42.2 -24.4" stroke-width="8.3"/>
</g>
<g transform="translate(1209.2 451.6)" fill="none" stroke="#ff3ce0" opacity="0.37">
<circle r="44.7" stroke-width="11.6"/>
<circle r="16.1" stroke-width="5.8"/>
<path d="M46.9 0 L58 0" stroke-width="9.8"/>
<path d="M40.6 23.4 L50.3 29" stroke-width="9.8"/>
<path d="M23.4 40.6 L29 50.3" stroke-width="9.8"/>
<path d="M0 46.9 L0 58" stroke-width="9.8"/>
<path d="M-23.4 40.6 L-29 50.3" stroke-width="9.8"/>
<path d="M-40.6 23.4 L-50.3 29" stroke-width="9.8"/>
<path d="M-46.9 0 L-58 0" stroke-width="9.8"/>
<path d="M-40.6 -23.4 L-50.3 -29" stroke-width="9.8"/>
<path d="M-23.4 -40.6 L-29 -50.3" stroke-width="9.8"/>
<path d="M-0 -46.9 L-0 -58" stroke-width="9.8"/>
<path d="M23.4 -40.6 L29 -50.3" stroke-width="9.8"/>
<path d="M40.6 -23.4 L50.3 -29" stroke-width="9.8"/>
</g>
<path d="M1095.2 360.7 L1133.2 432.1 L1057.3 432.1 Z" fill="none" stroke="#ff3ce0" stroke-width="3" opacity="0.61"/>
<path d="M73.6 263.3 L115.3 341.7 L31.9 341.7 Z" fill="none" stroke="#3cf0ff" stroke-width="3" opacity="0.52"/>
<path d="M1267.4 602.8 L1298.6 661.6 L1236.1 661.6 Z" fill="none" stroke="#ff3ce0" stroke-width="3" opacity="0.30"/>
<path d="M43.6 469.4 L67 513.5 L20.2 513.5 Z" fill="none" stroke="#ff3ce0" stroke-width="3" opacity="0.40"/>
<path d="M754.8 54.1 L787.6 115.7 L722.1 115.7 Z" fill="none" stroke="#3cf0ff" stroke-width="3" opacity="0.77"/>
<path d="M412.7 43.2 L441.2 96.9 L384.2 96.9 Z" fill="none" stroke="#ff3ce0" stroke-width="3" opacity="0.50"/>
<path d="M318.4 442.8 L363.7 528.1 L273.1 528.1 Z" fill="none" stroke="#3cf0ff" stroke-width="3" opacity="0.49"/>
<path d="M257.5 579.3 L277.5 617.1 L237.4 617.1 Z" fill="none" stroke="#ff3ce0" stroke-width="3" opacity="0.32"/>
<path d="M116.8 356.3 L138.2 396.7 L95.4 396.7 Z" fill="none" stroke="#3cf0ff" stroke-width="3" opacity="0.70"/>
<path d="M1136.5 170.3 L1160 214.7 L1112.9 214.7 Z" fill="none" stroke="#3cf0ff" stroke-width="3" opacity="0.64"/>
<path d="M786.8 514.4 L808.5 555.4 L765 555.4 Z" fill="none" stroke="#ff3ce0" stroke-width="3" opacity="0.64"/>
<path d="M929.1 72.3 L955.3 121.6 L902.9 121.6 Z" fill="none" stroke="#ff3ce0" stroke-width="3" opacity="0.47"/>
<path d="M1098.5 599.6 L1123.3 646.3 L1073.6 646.3 Z" fill="none" stroke="#ff3ce0" stroke-width="3" opacity="0.64"/>
<path d="M1019.4 373.8 L1040.1 412.8 L998.7 412.8 Z" fill="none" stroke="#ff3ce0" stroke-width="3" opacity="0.61"/>
<path d="M776.6 51.5 L810.1 114.5 L743.1 114.5 Z" fill="none" stroke="#ff3ce0" stroke-width="3" opacity="0.74"/>
<path d="M155 174 L199.8 258.3 L110.2 258.3 Z" fill="none" stroke="#ff3ce0" stroke-width="3" opacity="0.72"/>
<path d="M1101.6 248.2 L1132.7 306.8 L1070.5 306.8 Z" fill="none" stroke="#ff3ce0" stroke-width="3" opacity="0.75"/>
<path d="M532 418.6 L559.2 469.8 L504.8 469.8 Z" fill="none" stroke="#ff3ce0" stroke-width="3" opacity="0.65"/>
<g fill="#ffe94d">
<circle cx="736.3" cy="696.6" r="1.1" opacity="0.70"/>
<circle cx="652.1" cy="621.8" r="2.4" opacity="0.54"/>
<circle cx="703.9" cy="63.1" r="1.2" opacity="0.57"/>
<circle cx="499.3" cy="676.4" r="1.0" opacity="0.70"/>
<circle cx="1433.1" cy="564.5" r="1.3" opacity="0.51"/>
<circle cx="1281.4" cy="134.2" r="1.9" opacity="0.48"/>
<circle cx="583.7" cy="371" r="2.1" opacity="0.38"/>
<circle cx="1300.7" cy="700.1" r="2.1" opacity="0.30"/>
<circle cx="414.9" cy="46.1" r="2.2" opacity="0.72"/>
<circle cx="605.5" cy="384.2" r="2.2" opacity="0.42"/>
<circle cx="1229.9" cy="443.5" r="2.7" opacity="0.73"/>
<circle cx="292.3" cy="699.5" r="2.5" opacity="0.27"/>
<circle cx="428.7" cy="784.9" r="2.6" opacity="0.62"/>
<circle cx="1187.1" cy="636.1" r="2.8" opacity="0.79"/>
<circle cx="1233.3" cy="760.1" r="1.6" opacity="0.77"/>
<circle cx="1198.4" cy="760.6" r="2.0" opacity="0.23"/>
<circle cx="1296.5" cy="186.8" r="1.4" opacity="0.73"/>
<circle cx="1483.2" cy="866" r="2.4" opacity="0.56"/>
<circle cx="34.8" cy="804.9" r="1.7" opacity="0.52"/>
<circle cx="320.4" cy="102.8" r="1.0" opacity="0.28"/>
<circle cx="628.4" cy="438.2" r="1.5" opacity="0.43"/>
<circle cx="1344.6" cy="754.9" r="2.6" opacity="0.22"/>
<circle cx="1351.9" cy="35.7" r="1.3" opacity="0.69"/>
<circle cx="586.3" cy="107" r="2.5" opacity="0.72"/>
<circle cx="878" cy="849.7" r="1.7" opacity="0.25"/>
<circle cx="1467" cy="319" r="1.4" opacity="0.47"/>
<circle cx="1289.4" cy="741.1" r="2.7" opacity="0.22"/>
<circle cx="1098.6" cy="506" r="2.7" opacity="0.67"/>
<circle cx="1040.6" cy="748.5" r="2.8" opacity="0.59"/>
<circle cx="939.3" cy="712.1" r="2.1" opacity="0.50"/>
<circle cx="538.8" cy="579.5" r="2.5" opacity="0.72"/>
<circle cx="625.2" cy="584.8" r="1.6" opacity="0.24"/>
<circle cx="1275" cy="610.3" r="2.8" opacity="0.29"/>
<circle cx="195.9" cy="437.5" r="1.2" opacity="0.38"/>
<circle cx="316" cy="124.5" r="1.8" opacity="0.42"/>
<circle cx="648.5" cy="292.5" r="2.1" opacity="0.70"/>
<circle cx="1410.9" cy="718.9" r="1.6" opacity="0.78"/>
<circle cx="1016.8" cy="553.3" r="1.1" opacity="0.42"/>
<circle cx="426.4" cy="505.7" r="2.5" opacity="0.63"/>
<circle cx="704.6" cy="259.1" r="1.6" opacity="0.84"/>
<circle cx="190.8" cy="525.1" r="1.9" opacity="0.44"/>
<circle cx="249.6" cy="554.6" r="1.5" opacity="0.42"/>
<circle cx="598.9" cy="801.5" r="2.6" opacity="0.81"/>
<circle cx="957.3" cy="79.5" r="2.1" opacity="0.78"/>
<circle cx="1504.6" cy="554.1" r="2.1" opacity="0.76"/>
<circle cx="227" cy="308.6" r="2.8" opacity="0.62"/>
<circle cx="68.5" cy="301.9" r="2.0" opacity="0.74"/>
<circle cx="840.8" cy="765.8" r="1.3" opacity="0.52"/>
<circle cx="145.1" cy="286.6" r="2.4" opacity="0.35"/>
<circle cx="107.5" cy="612.3" r="1.3" opacity="0.38"/>
<circle cx="195.2" cy="201.3" r="1.3" opacity="0.68"/>
<circle cx="496.2" cy="132.4" r="1.9" opacity="0.49"/>
<circle cx="622" cy="253.9" r="2.6" opacity="0.33"/>
<circle cx="944.4" cy="695.7" r="1.9" opacity="0.63"/>
<circle cx="1145" cy="751.7" r="1.6" opacity="0.46"/>
<circle cx="218.7" cy="82.2" r="2.2" opacity="0.39"/>
<circle cx="1075.2" cy="268.5" r="1.9" opacity="0.65"/>
<circle cx="832.5" cy="516.7" r="1.3" opacity="0.47"/>
<circle cx="1329.6" cy="140.9" r="1.8" opacity="0.55"/>
<circle cx="393" cy="200.1" r="2.4" opacity="0.56"/>
<circle cx="819.5" cy="283.7" r="1.2" opacity="0.33"/>
<circle cx="1341.9" cy="346.3" r="2.0" opacity="0.37"/>
<circle cx="1531" cy="726.8" r="2.4" opacity="0.28"/>
<circle cx="331.8" cy="747.2" r="1.2" opacity="0.36"/>
<circle cx="54.9" cy="490" r="1.8" opacity="0.52"/>
<circle cx="831.7" cy="851.1" r="2.0" opacity="0.75"/>
<circle cx="92.5" cy="278.3" r="2.8" opacity="0.45"/>
<circle cx="1346.5" cy="91.4" r="2.0" opacity="0.79"/>
<circle cx="728" cy="699.4" r="2.7" opacity="0.69"/>
<circle cx="639.4" cy="25" r="1.9" opacity="0.47"/>
<circle cx="226.1" cy="307.8" r="1.1" opacity="0.64"/>
<circle cx="443.1" cy="287.3" r="1.5" opacity="0.38"/>
<circle cx="824.3" cy="358.1" r="1.1" opacity="0.64"/>
<circle cx="71.9" cy="265.6" r="2.7" opacity="0.65"/>
<circle cx="554.6" cy="583.2" r="2.5" opacity="0.27"/>
<circle cx="1292.4" cy="73.3" r="1.3" opacity="0.71"/>
<circle cx="805.6" cy="162.8" r="2.0" opacity="0.78"/>
<circle cx="565.1" cy="869.1" r="2.5" opacity="0.21"/>
<circle cx="231.3" cy="413.8" r="1.8" opacity="0.41"/>
<circle cx="268.5" cy="235.5" r="1.0" opacity="0.48"/>
<circle cx="1222" cy="196.1" r="2.7" opacity="0.81"/>
<circle cx="568" cy="270.8" r="2.1" opacity="0.44"/>
<circle cx="569" cy="52.7" r="1.5" opacity="0.77"/>
<circle cx="995.2" cy="497.3" r="1.0" opacity="0.61"/>
<circle cx="894.9" cy="138.4" r="2.5" opacity="0.80"/>
<circle cx="382.8" cy="489.2" r="2.4" opacity="0.78"/>
<circle cx="1415.1" cy="93.5" r="2.7" opacity="0.60"/>
<circle cx="1188.8" cy="876.5" r="2.8" opacity="0.42"/>
<circle cx="428.1" cy="56.9" r="1.4" opacity="0.44"/>
<circle cx="539.6" cy="563.5" r="2.8" opacity="0.40"/>
<circle cx="1104.2" cy="796.8" r="2.5" opacity="0.60"/>
<circle cx="1321.8" cy="595.8" r="1.9" opacity="0.73"/>
<circle cx="262.4" cy="192.9" r="2.6" opacity="0.55"/>
<circle cx="623.8" cy="308.5" r="1.3" opacity="0.80"/>
<circle cx="215.6" cy="607.7" r="2.0" opacity="0.67"/>
<circle cx="1577.2" cy="117.1" r="2.2" opacity="0.34"/>
<circle cx="410.2" cy="79" r="1.8" opacity="0.80"/>
<circle cx="721.2" cy="96.3" r="2.2" opacity="0.79"/>
<circle cx="270.2" cy="748.4" r="2.0" opacity="0.32"/>
<circle cx="923.4" cy="90.7" r="2.3" opacity="0.67"/>
<circle cx="1001.8" cy="590.7" r="1.1" opacity="0.51"/>
<circle cx="1362.9" cy="658.6" r="1.3" opacity="0.79"/>
<circle cx="1372" cy="415.8" r="2.8" opacity="0.57"/>
<circle cx="367.3" cy="820.3" r="2.7" opacity="0.72"/>
<circle cx="1553.3" cy="790.1" r="1.9" opacity="0.59"/>
<circle cx="839.4" cy="563" r="1.5" opacity="0.46"/>
<circle cx="877.4" cy="809.3" r="2.0" opacity="0.57"/>
<circle cx="47.4" cy="536.6" r="1.8" opacity="0.54"/>
<circle cx="1542.7" cy="562.5" r="2.4" opacity="0.56"/>
<circle cx="1075.5" cy="598.9" r="1.0" opacity="0.28"/>
</g>
<circle cx="645" cy="502.4" r="3.5" fill="#ffe94d" opacity="0.4"/>
<circle cx="1344" cy="482.3" r="5.2" fill="#ffe94d" opacity="0.1" filter="url(#g-soft)"/>
<circle cx="110.5" cy="147.1" r="4.6" fill="#ff3ce0" opacity="0.1" filter="url(#g-soft)"/>
<circle cx="1536.2" cy="135.8" r="2.6" fill="#ffe94d" opacity="0.2"/>
<circle cx="593.7" cy="274.2" r="4.5" fill="#ff3ce0" opacity="0.1" filter="url(#g-soft)"/>
<circle cx="270.5" cy="535.5" r="4" fill="#3cf0ff" opacity="0.1" filter="url(#g-soft)"/>
<circle cx="1318" cy="704.9" r="4.2" fill="#ff3ce0" opacity="0.2" filter="url(#g-soft)"/>
<circle cx="1597.8" cy="95.3" r="5.1" fill="#ff3ce0" opacity="0.1" filter="url(#g-soft)"/>
<circle cx="1500.5" cy="699.9" r="2.6" fill="#ff3ce0" opacity="0.4"/>
<circle cx="136.1" cy="6.6" r="1.2" fill="#ffe94d" opacity="0.4"/>
<circle cx="859.5" cy="772.5" r="3.3" fill="#ff3ce0" opacity="0.6"/>
<circle cx="618.6" cy="60.6" r="4.5" fill="#ffe94d" opacity="0.1" filter="url(#g-soft)"/>
<circle cx="1583.5" cy="760.9" r="1.9" fill="#ff3ce0" opacity="0.3"/>
<circle cx="1164.2" cy="42.3" r="2.5" fill="#ffe94d" opacity="0.3"/>
<circle cx="500.6" cy="642.3" r="2.9" fill="#ffe94d" opacity="0.6"/>
<circle cx="661.9" cy="71.1" r="4.7" fill="#ff3ce0" opacity="0.2" filter="url(#g-soft)"/>
<circle cx="739.6" cy="319.9" r="1.2" fill="#ff3ce0" opacity="0.3"/>
<circle cx="538.6" cy="212.5" r="1.3" fill="#ffe94d" opacity="0.2"/>
<circle cx="1484.8" cy="646.4" r="1.8" fill="#3cf0ff" opacity="0.5"/>
<circle cx="362.8" cy="97.9" r="4.4" fill="#3cf0ff" opacity="0.2" filter="url(#g-soft)"/>
<circle cx="34.6" cy="332.1" r="4.2" fill="#ffe94d" opacity="0.1" filter="url(#g-soft)"/>
<circle cx="695.1" cy="105.6" r="1.9" fill="#ffe94d" opacity="0.6"/>
<circle cx="1343.1" cy="166.5" r="3.6" fill="#3cf0ff" opacity="0.1" filter="url(#g-soft)"/>
<circle cx="683.8" cy="167.4" r="3.3" fill="#ffe94d" opacity="0.3"/>
<circle cx="1468.7" cy="25.4" r="4.4" fill="#ffe94d" opacity="0.1" filter="url(#g-soft)"/>
<circle cx="1228.5" cy="634.9" r="4.4" fill="#ff3ce0" opacity="0.1" filter="url(#g-soft)"/>
<circle cx="663.7" cy="65.1" r="3" fill="#ffe94d" opacity="0.2"/>
<circle cx="1081.1" cy="886.3" r="5.4" fill="#ffe94d" opacity="0.1" filter="url(#g-soft)"/>
<circle cx="675.4" cy="738.1" r="4" fill="#ff3ce0" opacity="0.2" filter="url(#g-soft)"/>
<circle cx="1365.1" cy="520.5" r="3.3" fill="#3cf0ff" opacity="0.4"/>
<circle cx="314.5" cy="6.8" r="1.8" fill="#ff3ce0" opacity="0.5"/>
<circle cx="1152.1" cy="210.3" r="2.6" fill="#ff3ce0" opacity="0.3"/>
<circle cx="1246.8" cy="186.5" r="3.8" fill="#ffe94d" opacity="0.2" filter="url(#g-soft)"/>
<circle cx="788.9" cy="730.8" r="1.3" fill="#3cf0ff" opacity="0.4"/>
<circle cx="955.5" cy="370.2" r="2.2" fill="#ff3ce0" opacity="0.3"/>
<circle cx="1428" cy="814.4" r="5.1" fill="#3cf0ff" opacity="0.1" filter="url(#g-soft)"/>
<circle cx="1479.2" cy="885.5" r="4.1" fill="#ffe94d" opacity="0.2" filter="url(#g-soft)"/>
<circle cx="1399.6" cy="222.2" r="3.5" fill="#3cf0ff" opacity="0.3"/>
<circle cx="900.7" cy="407.1" r="4.3" fill="#3cf0ff" opacity="0.2" filter="url(#g-soft)"/>
<circle cx="105.9" cy="561.6" r="3.1" fill="#ffe94d" opacity="0.5"/>
<circle cx="1386.5" cy="482.4" r="4.2" fill="#3cf0ff" opacity="0.1" filter="url(#g-soft)"/>
<circle cx="852.3" cy="825.2" r="4.5" fill="#ffe94d" opacity="0.2" filter="url(#g-soft)"/>
<circle cx="614.5" cy="560.1" r="1.7" fill="#ffe94d" opacity="0.4"/>
<circle cx="1494.3" cy="38.9" r="4.8" fill="#ff3ce0" opacity="0.1" filter="url(#g-soft)"/>
<circle cx="167.1" cy="602.5" r="5.3" fill="#3cf0ff" opacity="0.1" filter="url(#g-soft)"/>
<circle cx="300.6" cy="352.8" r="2.8" fill="#ff3ce0" opacity="0.3"/>
<circle cx="332.4" cy="439.8" r="5.2" fill="#ff3ce0" opacity="0.2" filter="url(#g-soft)"/>
<circle cx="308.1" cy="143.1" r="5.4" fill="#ffe94d" opacity="0.1" filter="url(#g-soft)"/>
<circle cx="918.5" cy="389.7" r="1.6" fill="#ff3ce0" opacity="0.3"/>
<circle cx="958.8" cy="495.2" r="3.4" fill="#3cf0ff" opacity="0.5"/>
<circle cx="354.4" cy="239.4" r="1.4" fill="#ff3ce0" opacity="0.4"/>
<circle cx="1291.5" cy="257.2" r="4.1" fill="#ffe94d" opacity="0.1" filter="url(#g-soft)"/>
<circle cx="985.3" cy="733.1" r="3.4" fill="#ffe94d" opacity="0.2"/>
<circle cx="44" cy="838.4" r="2.9" fill="#ff3ce0" opacity="0.3"/>
<circle cx="16.3" cy="865.1" r="1.8" fill="#3cf0ff" opacity="0.4"/>
<circle cx="762.7" cy="619.7" r="3.8" fill="#ffe94d" opacity="0.1" filter="url(#g-soft)"/>
<circle cx="444" cy="720.8" r="1.2" fill="#3cf0ff" opacity="0.4"/>
<circle cx="784.3" cy="895" r="1.8" fill="#3cf0ff" opacity="0.5"/>
<circle cx="166.6" cy="409.3" r="5.4" fill="#ff3ce0" opacity="0.2" filter="url(#g-soft)"/>
<circle cx="356.6" cy="838.4" r="5.1" fill="#3cf0ff" opacity="0.1" filter="url(#g-soft)"/>
<circle cx="1086.9" cy="105.4" r="4.5" fill="#ff3ce0" opacity="0.1" filter="url(#g-soft)"/>
<circle cx="1240.8" cy="741.8" r="5.2" fill="#3cf0ff" opacity="0.2" filter="url(#g-soft)"/>
<circle cx="225.9" cy="622.3" r="5.4" fill="#ffe94d" opacity="0.1" filter="url(#g-soft)"/>
<circle cx="228.4" cy="776.3" r="2" fill="#ff3ce0" opacity="0.2"/>
<circle cx="176.9" cy="522.1" r="4.9" fill="#ffe94d" opacity="0.1" filter="url(#g-soft)"/>
<circle cx="1081.4" cy="581.5" r="3.3" fill="#ff3ce0" opacity="0.6"/>
<circle cx="1521.1" cy="390.6" r="2.1" fill="#3cf0ff" opacity="0.5"/>
<circle cx="962.5" cy="805" r="4.9" fill="#ff3ce0" opacity="0.1" filter="url(#g-soft)"/>
<circle cx="735" cy="445.2" r="5.1" fill="#ff3ce0" opacity="0.1" filter="url(#g-soft)"/>
<circle cx="1316.5" cy="178.3" r="5" fill="#3cf0ff" opacity="0.1" filter="url(#g-soft)"/>
<circle cx="518.8" cy="10" r="3.8" fill="#3cf0ff" opacity="0.1" filter="url(#g-soft)"/>
<circle cx="188.3" cy="412" r="3.9" fill="#ffe94d" opacity="0.1" filter="url(#g-soft)"/>
<circle cx="958.3" cy="727.1" r="4.4" fill="#3cf0ff" opacity="0.1" filter="url(#g-soft)"/>
<circle cx="221.1" cy="454.1" r="3.5" fill="#3cf0ff" opacity="0.5"/>
<circle cx="921.7" cy="292.2" r="3" fill="#ff3ce0" opacity="0.5"/>
<circle cx="1194.3" cy="313.2" r="4" fill="#3cf0ff" opacity="0.1" filter="url(#g-soft)"/>
<circle cx="920" cy="252.8" r="5.2" fill="#ffe94d" opacity="0.1" filter="url(#g-soft)"/>
<circle cx="209" cy="583.5" r="3.4" fill="#ff3ce0" opacity="0.5"/>
<circle cx="1081.2" cy="664.3" r="1.8" fill="#ffe94d" opacity="0.4"/>
<circle cx="223.8" cy="272.4" r="3.1" fill="#3cf0ff" opacity="0.3"/>
<circle cx="138.8" cy="202.1" r="3" fill="#3cf0ff" opacity="0.5"/>
<circle cx="1088.9" cy="448.2" r="4.8" fill="#3cf0ff" opacity="0.1" filter="url(#g-soft)"/>
<circle cx="604.2" cy="252.2" r="4.8" fill="#ff3ce0" opacity="0.1" filter="url(#g-soft)"/>
<circle cx="828.4" cy="530.3" r="4.2" fill="#3cf0ff" opacity="0.1" filter="url(#g-soft)"/>
<circle cx="713.8" cy="108.1" r="1.6" fill="#ff3ce0" opacity="0.4"/>
<circle cx="213.9" cy="446.4" r="5" fill="#ff3ce0" opacity="0.1" filter="url(#g-soft)"/>
<circle cx="1361.9" cy="833.3" r="2.9" fill="#3cf0ff" opacity="0.4"/>
<circle cx="1483.7" cy="783.9" r="2.5" fill="#3cf0ff" opacity="0.5"/>
<circle cx="423" cy="606.8" r="4.3" fill="#3cf0ff" opacity="0.2" filter="url(#g-soft)"/>
<circle cx="1218.2" cy="813.5" r="1.7" fill="#ff3ce0" opacity="0.4"/>
<rect width="1600" height="900" fill="url(#g-corner)"/>
<rect width="1600" height="900" fill="url(#g-vig)"/>
<rect width="1600" height="900" filter="url(#g-grain)" opacity="0.12"/>
</svg>
