<svg class="art art--killbot" viewBox="0 0 1600 900" xmlns="http://www.w3.org/2000/svg" preserveAspectRatio="xMidYMid slice" role="img" aria-label="Torn scanlines and hazard chevrons breaking up a red and green frame">
<defs>
<linearGradient id="g-bg" x1="0" y1="0" x2="0.3" y2="1"><stop offset="0%" stop-color="#2a0d0d"/><stop offset="58%" stop-color="#0a1a08"/><stop offset="100%" stop-color="#050b04"/></linearGradient>
<linearGradient id="g-slab" x1="0" y1="0" x2="0.4" y2="1"><stop offset="0%" stop-color="#ff2020" stop-opacity="0.42"/><stop offset="100%" stop-color="#050b04" stop-opacity="0.72"/></linearGradient>
<linearGradient id="g-blade" x1="0" y1="0" x2="1" y2="1"><stop offset="0%" stop-color="#ffe8e8" stop-opacity="0.7"/><stop offset="60%" stop-color="#ff2020" stop-opacity="0.28"/><stop offset="100%" stop-color="#3cff3c" stop-opacity="0"/></linearGradient>
<linearGradient id="g-beam" x1="0" y1="0" x2="1" y2="0"><stop offset="0%" stop-color="#ff2020" stop-opacity="0"/><stop offset="30%" stop-color="#ffe8e8"/><stop offset="70%" stop-color="#ff2020"/><stop offset="100%" stop-color="#ff2020" stop-opacity="0"/></linearGradient>
<radialGradient id="g-orb" cx="42%" cy="38%" r="62%"><stop offset="0%" stop-color="#ffe8e8"/><stop offset="38%" stop-color="#ff2020"/><stop offset="78%" stop-color="#3cff3c" stop-opacity="0.7"/><stop offset="100%" stop-color="#050b04"/></radialGradient>
<radialGradient id="g-halo" cx="50%" cy="50%" r="50%"><stop offset="0%" stop-color="#ff2020" stop-opacity="0.42"/><stop offset="100%" stop-color="#ff2020" stop-opacity="0"/></radialGradient>
<linearGradient id="g-vig" x1="0" y1="0" x2="0" y2="1"><stop offset="0%" stop-color="#050b04" stop-opacity="0.42"/><stop offset="26%" stop-color="#050b04" stop-opacity="0.02"/><stop offset="100%" stop-color="#050b04" stop-opacity="0.5"/></linearGradient>
<filter id="g-glow" x="-70%" y="-70%" width="240%" height="240%"><feGaussianBlur stdDeviation="8" result="b"/><feFlood flood-color="#ff2020" result="fc"/><feComposite in="fc" in2="b" operator="in" result="g"/><feMerge><feMergeNode in="g"/><feMergeNode in="g"/><feMergeNode in="SourceGraphic"/></feMerge></filter>
<filter id="g-soft"><feGaussianBlur stdDeviation="20"/></filter>
<radialGradient id="g-corner" cx="50%" cy="46%" r="72%"><stop offset="55%" stop-color="#050b04" stop-opacity="0"/><stop offset="100%" stop-color="#050b04" stop-opacity="0.72"/></radialGradient>
<filter id="g-grain"><feTurbulence type="fractalNoise" baseFrequency="0.85" numOctaves="4"/><feColorMatrix type="saturate" values="0"/></filter>
</defs>
<rect width="1600" height="900" fill="url(#g-bg)"/>
<g filter="url(#g-soft)">
<ellipse cx="1182.2" cy="755.8" rx="214.8" ry="239.7" fill="#ff2020" opacity="0.1"/>
<ellipse cx="1127" cy="635.3" rx="459.6" ry="209" fill="#3cff3c" opacity="0.1"/>
<ellipse cx="1278.7" cy="397.2" rx="419.7" ry="238.1" fill="#ff2020" opacity="0.1"/>
<ellipse cx="203.6" cy="442.2" rx="413.6" ry="189.1" fill="#3cff3c" opacity="0.1"/>
<ellipse cx="53.2" cy="684.5" rx="413" ry="105.2" fill="#3cff3c" opacity="0.1"/>
<ellipse cx="34.1" cy="584.1" rx="358.2" ry="85.3" fill="#ff2020" opacity="0.1"/>
<ellipse cx="1510.6" cy="62.6" rx="189.1" ry="186.4" fill="#ff2020" opacity="0.1"/>
<ellipse cx="1685.6" cy="773.8" rx="239.9" ry="198.8" fill="#ff2020" opacity="0.1"/>
</g>
<g filter="url(#g-soft)" opacity="0.5">
<path d="M770.4 -92.2 L811.8 -92.2 L896.7 960 L794.6 960 Z" fill="#ffe8e8" opacity="0.1"/>
<path d="M155.3 -29 L265.1 -29 L383.9 960 L57 960 Z" fill="#ffe8e8" opacity="0.1"/>
<path d="M968.8 -73 L1050.3 -73 L1087.6 960 L862 960 Z" fill="#ffe8e8" opacity="0.1"/>
<path d="M597.4 -35.6 L693.9 -35.6 L644 960 L446 960 Z" fill="#ffe8e8" opacity="0.1"/>
<path d="M670.4 37.3 L720.3 37.3 L610.4 960 L497.2 960 Z" fill="#ffe8e8" opacity="0.1"/>
</g>
<rect x="587.6" y="281.3" width="451" height="13.3" fill="#3cff3c" opacity="0.2"/>
<rect x="418.7" y="730.2" width="957" height="15.4" fill="#3cff3c" opacity="0.3"/>
<rect x="31.2" y="253.5" width="1412.7" height="11.6" fill="#ff2020" opacity="0.3"/>
<rect x="136.1" y="577" width="1138.8" height="3.4" fill="#ffe8e8" opacity="0.2"/>
<rect x="162" y="360.2" width="1012.9" height="12" fill="#ffe8e8" opacity="0.2"/>
<rect x="257.4" y="286.7" width="426.4" height="19.6" fill="#3cff3c" opacity="0.3"/>
<rect x="13.4" y="151.6" width="1288" height="8.3" fill="#ffe8e8" opacity="0.1"/>
<rect x="-56.2" y="401.1" width="1521.3" height="7" fill="#ff2020" opacity="0.1"/>
<rect x="339.9" y="21.4" width="649.2" height="25.3" fill="#3cff3c" opacity="0.3"/>
<rect x="26.7" y="93.4" width="1085.5" height="7.2" fill="#ff2020" opacity="0.2"/>
<rect x="175.5" y="470.3" width="1332.9" height="15" fill="#3cff3c" opacity="0.2"/>
<rect x="493.6" y="340.6" width="1405.3" height="24.1" fill="#ff2020" opacity="0.1"/>
<rect x="18.4" y="172" width="1715.7" height="6.5" fill="#3cff3c" opacity="0.3"/>
<rect x="21.7" y="764.5" width="535.7" height="17.7" fill="#ffe8e8" opacity="0.2"/>
<rect x="727.5" y="544.2" width="1027.8" height="23.6" fill="#ff2020" opacity="0.1"/>
<rect x="328" y="882.6" width="863.5" height="16" fill="#3cff3c" opacity="0.2"/>
<rect x="56.1" y="140.1" width="1511.3" height="4.1" fill="#ffe8e8" opacity="0.3"/>
<rect x="328.2" y="11.3" width="1245.7" height="9.3" fill="#ffe8e8" opacity="0.1"/>
<rect x="751.1" y="296.1" width="1150.3" height="8.5" fill="#ff2020" opacity="0.1"/>
<rect x="738.8" y="569.3" width="895.7" height="16.1" fill="#ff2020" opacity="0.3"/>
<rect x="253.4" y="837.9" width="501.9" height="21" fill="#3cff3c" opacity="0.2"/>
<rect x="303.8" y="832.6" width="1167.5" height="11.2" fill="#ff2020" opacity="0.1"/>
<rect x="594.9" y="146.7" width="1459" height="3.7" fill="#ffe8e8" opacity="0.2"/>
<rect x="223.6" y="748.7" width="666.4" height="16.4" fill="#ffe8e8" opacity="0.2"/>
<rect x="753.4" y="545.9" width="1277.6" height="11.2" fill="#ffe8e8" opacity="0.3"/>
<rect x="536.6" y="465.2" width="613.3" height="17.1" fill="#ffe8e8" opacity="0.3"/>
<rect x="156.3" y="258.8" width="1187.9" height="23.2" fill="#3cff3c" opacity="0.2"/>
<rect x="335.2" y="802.4" width="406" height="4.8" fill="#ffe8e8" opacity="0.2"/>
<rect x="25.4" y="858.1" width="1130.7" height="20.6" fill="#ff2020" opacity="0.3"/>
<rect x="473.7" y="315.2" width="552.8" height="5.2" fill="#ffe8e8" opacity="0.2"/>
<path d="M1058.8 885.3 l36.1 21.6 l-36.1 21.6" fill="none" stroke="#ffe8e8" stroke-width="4" opacity="0.5"/>
<path d="M548.9 540.5 l36.1 21.7 l-36.1 21.7" fill="none" stroke="#ffe8e8" stroke-width="4" opacity="0.5"/>
<path d="M1540.3 881.1 l50.6 30.4 l-50.6 30.4" fill="none" stroke="#ffe8e8" stroke-width="4" opacity="0.4"/>
<path d="M582.4 178.4 l63 37.8 l-63 37.8" fill="none" stroke="#ffe8e8" stroke-width="4" opacity="0.5"/>
<path d="M1180.7 887.3 l33.2 19.9 l-33.2 19.9" fill="none" stroke="#ffe8e8" stroke-width="4" opacity="0.5"/>
<path d="M1361.4 852.5 l64.6 38.7 l-64.6 38.7" fill="none" stroke="#ffe8e8" stroke-width="4" opacity="0.3"/>
<path d="M116.4 475.1 l58.9 35.4 l-58.9 35.4" fill="none" stroke="#ffe8e8" stroke-width="4" opacity="0.3"/>
<g class="mo-tear" style='--dur:6.5s;--sx:14'>
<g transform="translate(800 414) scale(1.1)" fill="#050b04">
<path d="M-150 -40 a150 150 0 0 1 300 0 q6 110 -70 130 l0 60 q-80 30 -160 0 l0 -60 q-76 -20 -70 -130 Z"/>
<path d="M-150 -50 q-70 -110 -20 -170 q10 84 60 130 Z"/>
<path d="M150 -50 q70 -110 20 -170 q-10 84 -60 130 Z"/>
</g>
<g transform="translate(800 414) scale(1.1)" fill="#ff2020" opacity="0.85">
<ellipse cx="-64" cy="10" rx="42" ry="50"/>
<ellipse cx="64" cy="10" rx="42" ry="50"/>
<path d="M0 46 l26 54 -52 0 Z"/>
</g>
</g>
<g class="mo-flicker" style='--dur:4.2s'>
<path d="M1474.1 370.2 L1508.5 435 L1439.6 435 Z" fill="none" stroke="#ff2020" stroke-width="3" opacity="0.40"/>
<path d="M0 480.4 L44.9 564.8 L-44.8 564.8 Z" fill="none" stroke="#ff2020" stroke-width="3" opacity="0.32"/>
<path d="M1064.8 294.6 L1088.6 339.5 L1041 339.5 Z" fill="none" stroke="#3cff3c" stroke-width="3" opacity="0.62"/>
<path d="M199.5 347.8 L241 425.9 L158 425.9 Z" fill="none" stroke="#ff2020" stroke-width="3" opacity="0.77"/>
<path d="M1141.4 405.9 L1163.4 447.2 L1119.4 447.2 Z" fill="none" stroke="#ff2020" stroke-width="3" opacity="0.38"/>
<path d="M903 653.1 L925.4 695.2 L880.6 695.2 Z" fill="none" stroke="#3cff3c" stroke-width="3" opacity="0.36"/>
<path d="M178.5 22.6 L204.8 72.1 L152.2 72.1 Z" fill="none" stroke="#ff2020" stroke-width="3" opacity="0.51"/>
<path d="M838.3 293.3 L872.8 358.2 L803.8 358.2 Z" fill="none" stroke="#ff2020" stroke-width="3" opacity="0.76"/>
<path d="M1079.4 656.8 L1124.3 741.4 L1034.5 741.4 Z" fill="none" stroke="#ff2020" stroke-width="3" opacity="0.35"/>
<path d="M691.7 250.2 L725.4 313.6 L658.1 313.6 Z" fill="none" stroke="#3cff3c" stroke-width="3" opacity="0.74"/>
<path d="M374.1 347 L396.7 389.6 L351.5 389.6 Z" fill="none" stroke="#ff2020" stroke-width="3" opacity="0.70"/>
<path d="M1417.4 630.6 L1435.6 664.9 L1399.2 664.9 Z" fill="none" stroke="#3cff3c" stroke-width="3" opacity="0.44"/>
<path d="M1595.8 361.5 L1625.5 417.4 L1566.1 417.4 Z" fill="none" stroke="#ff2020" stroke-width="3" opacity="0.48"/>
<path d="M1550.7 502.8 L1578 554.1 L1523.4 554.1 Z" fill="none" stroke="#3cff3c" stroke-width="3" opacity="0.76"/>
</g>
<g fill="#ffe8e8">
<circle cx="1561.8" cy="730.2" r="1.2" opacity="0.73"/>
<circle cx="1363.5" cy="32.1" r="2.4" opacity="0.62"/>
<circle cx="1393.9" cy="400.6" r="2.6" opacity="0.25"/>
<circle cx="290.5" cy="265.9" r="1.7" opacity="0.28"/>
<circle cx="1242.8" cy="235.6" r="2.2" opacity="0.41"/>
<circle cx="405.7" cy="711.2" r="2.0" opacity="0.63"/>
<circle cx="1544.7" cy="143.3" r="2.8" class="mo-twinkle" style="--dur:2.4s;--delay:-0.9s"/>
<circle cx="368" cy="381.4" r="1.7" opacity="0.27"/>
<circle cx="411.4" cy="864" r="1.6" opacity="0.33"/>
<circle cx="187" cy="256.6" r="1.3" opacity="0.75"/>
<circle cx="519.6" cy="681.5" r="2.0" class="mo-twinkle" style="--dur:2.6s;--delay:-1.9s"/>
<circle cx="134.2" cy="163.2" r="2.0" opacity="0.83"/>
<circle cx="941.1" cy="600.6" r="1.4" opacity="0.53"/>
<circle cx="705.3" cy="563.4" r="2.4" opacity="0.76"/>
<circle cx="470.1" cy="522" r="2.8" opacity="0.72"/>
<circle cx="1456.3" cy="63.2" r="2.8" class="mo-twinkle" style="--dur:2.7s;--delay:-4.9s"/>
<circle cx="1346.3" cy="198.8" r="1.2" opacity="0.81"/>
<circle cx="1554.7" cy="294.2" r="2.5" opacity="0.47"/>
<circle cx="823" cy="410.5" r="2.4" opacity="0.81"/>
<circle cx="1531.8" cy="790.1" r="2.4" class="mo-twinkle" style="--dur:2.1s;--delay:-4.9s"/>
<circle cx="614.2" cy="108.1" r="1.4" class="mo-twinkle" style="--dur:3.1s;--delay:-1.1s"/>
<circle cx="1089.2" cy="879.6" r="1.2" class="mo-twinkle" style="--dur:2.7s;--delay:-2.9s"/>
<circle cx="135.3" cy="564.6" r="2.6" opacity="0.72"/>
<circle cx="650.8" cy="156.2" r="1.5" class="mo-twinkle" style="--dur:5.1s;--delay:-0.7s"/>
<circle cx="237.5" cy="341.2" r="2.8" opacity="0.63"/>
<circle cx="1288.8" cy="118.2" r="2.8" class="mo-twinkle" style="--dur:3.3s;--delay:-1.6s"/>
<circle cx="1230.2" cy="420.6" r="1.3" opacity="0.82"/>
<circle cx="461.5" cy="27" r="2.3" class="mo-twinkle" style="--dur:4.0s;--delay:-5.0s"/>
<circle cx="1157.2" cy="188.1" r="2.6" class="mo-twinkle" style="--dur:4.7s;--delay:-0.8s"/>
<circle cx="261.4" cy="681.8" r="1.8" class="mo-twinkle" style="--dur:5.1s;--delay:-3.4s"/>
<circle cx="1050.6" cy="524.4" r="1.3" class="mo-twinkle" style="--dur:5.2s;--delay:-4.6s"/>
<circle cx="901.8" cy="37.4" r="1.7" opacity="0.83"/>
<circle cx="177.7" cy="154.4" r="1.8" class="mo-twinkle" style="--dur:4.8s;--delay:-2.5s"/>
<circle cx="85.9" cy="304.4" r="2.4" opacity="0.41"/>
<circle cx="856.3" cy="96.9" r="1.3" class="mo-twinkle" style="--dur:5.8s;--delay:-1.2s"/>
<circle cx="448.8" cy="690" r="1.1" opacity="0.35"/>
<circle cx="910.5" cy="323.7" r="2.1" opacity="0.70"/>
<circle cx="1475" cy="131.2" r="2.7" opacity="0.82"/>
<circle cx="927.5" cy="255.1" r="1.3" opacity="0.28"/>
<circle cx="980.9" cy="554.6" r="2.7" opacity="0.82"/>
<circle cx="1223.5" cy="399.9" r="2.2" opacity="0.50"/>
<circle cx="1168" cy="525.9" r="1.2" opacity="0.77"/>
<circle cx="1270.5" cy="555" r="1.8" opacity="0.47"/>
<circle cx="877.8" cy="790.8" r="1.7" class="mo-twinkle" style="--dur:4.6s;--delay:-4.7s"/>
<circle cx="833" cy="51.5" r="2.5" opacity="0.23"/>
<circle cx="107.3" cy="826.3" r="1.6" opacity="0.68"/>
<circle cx="327.5" cy="788.6" r="2.4" class="mo-twinkle" style="--dur:5.4s;--delay:-1.9s"/>
<circle cx="481.3" cy="770.7" r="2.1" class="mo-twinkle" style="--dur:4.6s;--delay:-4.9s"/>
<circle cx="1098.4" cy="457" r="2.0" opacity="0.64"/>
<circle cx="756.3" cy="364.2" r="2.7" opacity="0.76"/>
<circle cx="137.5" cy="755.2" r="2.5" class="mo-twinkle" style="--dur:6.3s;--delay:-2.0s"/>
<circle cx="875.4" cy="235.7" r="2.4" opacity="0.33"/>
<circle cx="1111.7" cy="732.9" r="1.7" class="mo-twinkle" style="--dur:2.9s;--delay:-0.7s"/>
<circle cx="626.5" cy="244.6" r="1.4" opacity="0.20"/>
<circle cx="357.8" cy="807.9" r="2.8" opacity="0.21"/>
<circle cx="1331.1" cy="378.1" r="2.1" opacity="0.28"/>
<circle cx="719.4" cy="618.4" r="2.0" class="mo-twinkle" style="--dur:6.0s;--delay:-3.7s"/>
<circle cx="100.1" cy="821.2" r="2.2" class="mo-twinkle" style="--dur:3.2s;--delay:-5.8s"/>
<circle cx="1028.4" cy="265.4" r="1.9" opacity="0.72"/>
<circle cx="480.4" cy="527.4" r="1.5" opacity="0.28"/>
</g>
<rect class="mo-tear" style="--dur:2.6s;--delay:-3.9s;--sx:31" x="637" y="131.5" width="880.2" height="15.2" fill="#ff2020" opacity="0.1"/>
<rect class="mo-tear" style="--dur:2.6s;--delay:-3.0s;--sx:62" x="467.6" y="693.8" width="1327" height="19.3" fill="#3cff3c" opacity="0.1"/>
<rect class="mo-tear" style="--dur:4.1s;--delay:-4.6s;--sx:46" x="-2.1" y="392.5" width="1154.6" height="28" fill="#ff2020" opacity="0.2"/>
<rect class="mo-tear" style="--dur:6.4s;--delay:-4.2s;--sx:54" x="526.5" y="632.4" width="821.2" height="25.9" fill="#3cff3c" opacity="0.3"/>
<rect class="mo-tear" style="--dur:3.8s;--delay:-0.1s;--sx:49" x="378.7" y="759.9" width="914.9" height="30" fill="#ffe8e8" opacity="0.2"/>
<rect class="mo-tear" style="--dur:6.3s;--delay:-4.2s;--sx:83" x="113.4" y="42.6" width="1293.2" height="16.9" fill="#ff2020" opacity="0.1"/>
<rect class="mo-tear" style="--dur:4.7s;--delay:-1.8s;--sx:37" x="217.3" y="337.4" width="602" height="19" fill="#3cff3c" opacity="0.2"/>
<rect class="mo-tear" style="--dur:4.6s;--delay:-2.5s;--sx:48" x="251.2" y="268.6" width="1192.2" height="24.5" fill="#ff2020" opacity="0.2"/>
<rect class="mo-tear" style="--dur:4.2s;--delay:-4.0s;--sx:57" x="155.1" y="534.2" width="777.9" height="17.1" fill="#ffe8e8" opacity="0.1"/>
<rect class="mo-tear" style="--dur:4.6s;--delay:-2.2s;--sx:86" x="-4.2" y="450.9" width="1552.1" height="10.2" fill="#ff2020" opacity="0.3"/>
<rect class="mo-tear" style="--dur:7.0s;--delay:-1.6s;--sx:66" x="146.3" y="620.7" width="1177.8" height="18.4" fill="#ff2020" opacity="0.3"/>
<rect class="mo-tear" style="--dur:6.6s;--delay:-4.3s;--sx:43" x="586.8" y="303.8" width="1580.3" height="23.1" fill="#ff2020" opacity="0.3"/>
<rect class="mo-tear" style="--dur:5.3s;--delay:-2.7s;--sx:35" x="231.8" y="238.8" width="797.5" height="13" fill="#ff2020" opacity="0.3"/>
<rect class="mo-tear" style="--dur:6.3s;--delay:-0.5s;--sx:21" x="16.2" y="428.6" width="578.2" height="29.9" fill="#3cff3c" opacity="0.2"/>
<rect class="mo-rip" style="--dur:5.5s;--delay:-1.7s" x="0" y="-10" width="1600" height="10.6" fill="#ffe8e8" opacity="0"/>
<rect class="mo-rip" style="--dur:6.3s;--delay:-3.2s" x="0" y="14.2" width="1600" height="4.1" fill="#ffe8e8" opacity="0"/>
<rect class="mo-rip" style="--dur:6.1s;--delay:-0.1s" x="0" y="31.2" width="1600" height="5.7" fill="#ffe8e8" opacity="0"/>
<rect class="mo-flicker" style="--dur:3.6s;--delay:-0.6s;--hi:0.50;--lo:0.02" x="27.6" y="447.7" width="91" height="32.8" fill="#3cff3c"/>
<rect class="mo-flicker" style="--dur:4.7s;--delay:-2.6s;--hi:0.65;--lo:0.02" x="589.2" y="69.9" width="131.8" height="50.9" fill="#3cff3c"/>
<rect class="mo-flicker" style="--dur:2.1s;--delay:-2.0s;--hi:0.41;--lo:0.02" x="474.8" y="376.9" width="139.6" height="59.8" fill="#3cff3c"/>
<rect class="mo-flicker" style="--dur:4.2s;--delay:-1.2s;--hi:0.54;--lo:0.02" x="756" y="444.6" width="96.9" height="29.6" fill="#3cff3c"/>
<rect class="mo-flicker" style="--dur:3.0s;--delay:-2.9s;--hi:0.33;--lo:0.02" x="1254.4" y="229" width="76.9" height="24.3" fill="#3cff3c"/>
<rect class="mo-flicker" style="--dur:3.1s;--delay:-2.1s;--hi:0.55;--lo:0.02" x="1301.1" y="193.1" width="71.8" height="19.2" fill="#3cff3c"/>
<circle cx="1529.3" cy="725.5" r="5.4" fill="#ffe8e8" opacity="0.1" filter="url(#g-soft)"/>
<circle cx="1035.3" cy="277.2" r="3.1" fill="#ffe8e8" opacity="0.5"/>
<circle cx="1039.6" cy="898.4" r="4.8" fill="#ffe8e8" opacity="0.2" filter="url(#g-soft)"/>
<circle cx="441" cy="893.4" r="3" fill="#ffe8e8" opacity="0.3"/>
<circle cx="1583.1" cy="10.5" r="3.8" fill="#ffe8e8" opacity="0.1" filter="url(#g-soft)"/>
<circle cx="554.9" cy="296.1" r="5.1" fill="#3cff3c" opacity="0.2" filter="url(#g-soft)"/>
<circle cx="1521.4" cy="283" r="4.5" fill="#ff2020" opacity="0.1" filter="url(#g-soft)"/>
<circle cx="1099" cy="803.2" r="5.3" fill="#ff2020" opacity="0.1" filter="url(#g-soft)"/>
<circle cx="863.7" cy="220.2" r="2.1" fill="#ffe8e8" opacity="0.4"/>
<circle cx="1259" cy="226.9" r="1.8" fill="#ff2020" opacity="0.5"/>
<circle cx="1419.5" cy="387.5" r="4.2" fill="#ffe8e8" opacity="0.1" filter="url(#g-soft)"/>
<circle cx="1393.2" cy="91.5" r="5.2" fill="#ffe8e8" opacity="0.2" filter="url(#g-soft)"/>
<circle cx="1010.8" cy="301.4" r="2" fill="#ffe8e8" opacity="0.4"/>
<circle cx="1214.5" cy="522.4" r="3.8" fill="#3cff3c" opacity="0.1" filter="url(#g-soft)"/>
<circle cx="1332.3" cy="292" r="1.3" fill="#ffe8e8" opacity="0.3"/>
<circle cx="609.8" cy="104.7" r="4.9" fill="#3cff3c" opacity="0.1" filter="url(#g-soft)"/>
<circle cx="896.2" cy="715.8" r="5.2" fill="#ffe8e8" opacity="0.1" filter="url(#g-soft)"/>
<circle cx="1357.5" cy="489.7" r="5" fill="#ff2020" opacity="0.1" filter="url(#g-soft)"/>
<circle cx="87.6" cy="235.9" r="3.5" fill="#3cff3c" opacity="0.3"/>
<circle cx="75.7" cy="342.3" r="2.2" fill="#ff2020" opacity="0.6"/>
<circle cx="700.1" cy="366.3" r="3.5" fill="#ffe8e8" opacity="0.6"/>
<circle cx="588.2" cy="860.5" r="2.5" fill="#3cff3c" opacity="0.4"/>
<circle cx="627.8" cy="542.5" r="4.4" fill="#3cff3c" opacity="0.2" filter="url(#g-soft)"/>
<circle cx="577.2" cy="654" r="3.4" fill="#ffe8e8" opacity="0.5"/>
<circle cx="822.8" cy="463.9" r="1.6" fill="#ffe8e8" opacity="0.4"/>
<circle cx="1551.2" cy="23.2" r="1.6" fill="#ffe8e8" opacity="0.3"/>
<circle cx="813.1" cy="393.9" r="5.4" fill="#ff2020" opacity="0.1" filter="url(#g-soft)"/>
<circle cx="724.6" cy="208.6" r="2.7" fill="#3cff3c" opacity="0.4"/>
<circle cx="145.5" cy="724.4" r="4.2" fill="#ffe8e8" opacity="0.1" filter="url(#g-soft)"/>
<circle cx="1136.5" cy="784.6" r="4.8" fill="#ffe8e8" opacity="0.1" filter="url(#g-soft)"/>
<circle cx="1550.9" cy="596.3" r="4.2" fill="#ff2020" opacity="0.1" filter="url(#g-soft)"/>
<circle cx="916.3" cy="882.2" r="3.4" fill="#3cff3c" opacity="0.2"/>
<circle cx="1421.3" cy="438.3" r="1.9" fill="#ff2020" opacity="0.6"/>
<circle cx="1028.1" cy="889.1" r="3" fill="#ffe8e8" opacity="0.5"/>
<circle cx="1457.6" cy="607.8" r="1.3" fill="#ff2020" opacity="0.4"/>
<circle cx="1543.1" cy="251.4" r="1.7" fill="#ffe8e8" opacity="0.3"/>
<circle cx="1486.4" cy="131.2" r="2" fill="#3cff3c" opacity="0.3"/>
<circle cx="1000.2" cy="738.7" r="3.9" fill="#ffe8e8" opacity="0.2" filter="url(#g-soft)"/>
<circle cx="920.1" cy="529.5" r="2" fill="#ff2020" opacity="0.5"/>
<circle cx="199.8" cy="7.5" r="3.4" fill="#ff2020" opacity="0.3"/>
<circle cx="555.6" cy="449.8" r="5.4" fill="#ff2020" opacity="0.1" filter="url(#g-soft)"/>
<circle cx="1303.5" cy="245.9" r="5" fill="#3cff3c" opacity="0.1" filter="url(#g-soft)"/>
<circle cx="458.1" cy="377.1" r="4.5" fill="#ffe8e8" opacity="0.1" filter="url(#g-soft)"/>
<circle cx="65" cy="62.6" r="2.4" fill="#ffe8e8" opacity="0.3"/>
<circle cx="933.3" cy="144" r="1.8" fill="#ffe8e8" opacity="0.6"/>
<circle cx="653.8" cy="768.8" r="4.5" fill="#ff2020" opacity="0.1" filter="url(#g-soft)"/>
<circle cx="209.6" cy="228" r="3" fill="#ff2020" opacity="0.6"/>
<circle cx="242.3" cy="158.2" r="1.9" fill="#3cff3c" opacity="0.5"/>
<circle cx="1318.4" cy="832.7" r="5.5" fill="#ffe8e8" opacity="0.2" filter="url(#g-soft)"/>
<circle cx="1328.5" cy="494.8" r="5" fill="#3cff3c" opacity="0.2" filter="url(#g-soft)"/>
<circle cx="1466.8" cy="859.4" r="3.4" fill="#3cff3c" opacity="0.2"/>
<circle cx="1309.4" cy="142.5" r="4.4" fill="#ff2020" opacity="0.1" filter="url(#g-soft)"/>
<circle cx="844.3" cy="687.3" r="2.9" fill="#3cff3c" opacity="0.5"/>
<circle cx="606" cy="301.1" r="4.8" fill="#3cff3c" opacity="0.2" filter="url(#g-soft)"/>
<circle cx="1298.5" cy="668.4" r="4.5" fill="#ff2020" opacity="0.1" filter="url(#g-soft)"/>
<circle cx="199.9" cy="202.8" r="1.5" fill="#ff2020" opacity="0.4"/>
<circle cx="1340.9" cy="854.8" r="4.3" fill="#3cff3c" opacity="0.1" filter="url(#g-soft)"/>
<circle cx="532.4" cy="692.8" r="1.2" fill="#ffe8e8" opacity="0.2"/>
<circle cx="605.6" cy="622.5" r="2.6" fill="#3cff3c" opacity="0.4"/>
<circle cx="400.4" cy="22.8" r="2.2" fill="#ff2020" opacity="0.5"/>
<circle cx="1307.5" cy="629.3" r="1.6" fill="#ffe8e8" opacity="0.2"/>
<circle cx="1405.9" cy="588.9" r="3.8" fill="#ffe8e8" opacity="0.2" filter="url(#g-soft)"/>
<circle cx="1483.5" cy="224.8" r="1.8" fill="#ffe8e8" opacity="0.3"/>
<circle cx="255" cy="391.1" r="1.2" fill="#ff2020" opacity="0.2"/>
<circle cx="560.3" cy="163.6" r="1.8" fill="#ffe8e8" opacity="0.2"/>
<circle cx="802.8" cy="718.3" r="1.6" fill="#ffe8e8" opacity="0.6"/>
<circle cx="717.3" cy="770.4" r="1.3" fill="#ff2020" opacity="0.2"/>
<circle cx="327.3" cy="780.1" r="1.5" fill="#3cff3c" opacity="0.5"/>
<circle cx="1507.2" cy="74.5" r="1.5" fill="#3cff3c" opacity="0.3"/>
<circle cx="906" cy="341.8" r="5" fill="#3cff3c" opacity="0.1" filter="url(#g-soft)"/>
<circle cx="1333" cy="645.6" r="3.8" fill="#ff2020" opacity="0.1" filter="url(#g-soft)"/>
<circle cx="1330.8" cy="348" r="4.6" fill="#ffe8e8" opacity="0.1" filter="url(#g-soft)"/>
<circle cx="1427.7" cy="71.3" r="1.3" fill="#3cff3c" opacity="0.4"/>
<circle cx="283.8" cy="821.9" r="5.2" fill="#3cff3c" opacity="0.2" filter="url(#g-soft)"/>
<circle cx="416.9" cy="234.5" r="4.2" fill="#ff2020" opacity="0.1" filter="url(#g-soft)"/>
<circle cx="707.8" cy="852.9" r="1.6" fill="#ffe8e8" opacity="0.2"/>
<circle cx="1571.5" cy="736.9" r="1.3" fill="#3cff3c" opacity="0.4"/>
<circle cx="876.6" cy="176" r="3.5" fill="#ffe8e8" opacity="0.6"/>
<circle cx="790.2" cy="821.4" r="3.3" fill="#3cff3c" opacity="0.3"/>
<circle cx="910.3" cy="797.7" r="4.2" fill="#ff2020" opacity="0.1" filter="url(#g-soft)"/>
<circle cx="121.4" cy="493.2" r="1.3" fill="#3cff3c" opacity="0.5"/>
<circle cx="1270.1" cy="42.1" r="4.8" fill="#ff2020" opacity="0.1" filter="url(#g-soft)"/>
<circle cx="559.6" cy="48.2" r="3" fill="#ff2020" opacity="0.5"/>
<circle cx="813.1" cy="742.8" r="3.5" fill="#ff2020" opacity="0.5"/>
<circle cx="976" cy="177.7" r="5.2" fill="#3cff3c" opacity="0.2" filter="url(#g-soft)"/>
<circle cx="1575.5" cy="731.9" r="4.7" fill="#3cff3c" opacity="0.1" filter="url(#g-soft)"/>
<circle cx="955.9" cy="785.3" r="2.2" fill="#3cff3c" opacity="0.2"/>
<circle cx="920.1" cy="350.9" r="3.2" fill="#ff2020" opacity="0.3"/>
<circle cx="1205.8" cy="532.6" r="4.8" fill="#ff2020" opacity="0.2" filter="url(#g-soft)"/>
<circle cx="1568.8" cy="138.4" r="3.6" fill="#ff2020" opacity="0.3"/>
<linearGradient id="g-band" x1="0" y1="0" x2="0" y2="1"><stop offset="0%" stop-color="#0a0f06" stop-opacity="0"/><stop offset="34%" stop-color="#0a0f06" stop-opacity="0.62"/><stop offset="66%" stop-color="#0a0f06" stop-opacity="0.62"/><stop offset="100%" stop-color="#0a0f06" stop-opacity="0"/></linearGradient>
<rect x="0" y="216" width="1600" height="468" fill="url(#g-band)"/>
<rect width="1600" height="900" fill="url(#g-corner)"/>
<rect width="1600" height="900" fill="url(#g-vig)"/>
<rect width="1600" height="900" filter="url(#g-grain)" opacity="0.12"/>
</svg>
